<svg xmlns="http://www.w3.org/2000/svg" viewBox="0 0 21.91 21.91"><defs><style>.cls-1{fill:#fff;}.cls-2{fill:#04999a;}</style></defs><title>assetAsset 81</title><g id="Layer_2" data-name="Layer 2"><g id="Layer_1-2" data-name="Layer 1"><circle class="cls-1" cx="10.96" cy="10.96" r="10.96"/><path id="Add_User-7" data-name="Add User-7" class="cls-2" d="M10.33,16.21a.38.38,0,0,1-.37-.39.39.39,0,0,1,.39-.37h.51c2.27,0,3.42-.4,3.42-1.18s-1.15-1.19-3.42-1.19-3.42.4-3.42,1.18c0,.25.09.62.87.89a.38.38,0,0,1,.24.48.38.38,0,0,1-.48.24c-1.14-.39-1.38-1.09-1.38-1.61,0-1.73,2.38-1.93,4.17-1.93,1,0,4.17,0,4.17,1.94,0,1.73-2.38,1.93-4.17,1.93Zm5-4.85V10.7h-.68a.38.38,0,0,1-.39-.39.39.39,0,0,1,.39-.4h.68V9.25a.4.4,0,0,1,.79,0v.66h.68a.4.4,0,0,1,.4.4.39.39,0,0,1-.4.39h-.68v.66a.4.4,0,1,1-.79,0ZM8.05,8.5a2.81,2.81,0,1,1,2.81,2.82A2.81,2.81,0,0,1,8.05,8.5Zm.75,0a2.06,2.06,0,1,0,2.06-2.07A2.06,2.06,0,0,0,8.8,8.5Z"/></g></g></svg>