<svg xmlns="http://www.w3.org/2000/svg" viewBox="0 0 18.31 19"><defs><style>.cls-1{fill:none;}.cls-2{fill:#fff;}</style></defs><title>Asset 95</title><g id="Layer_2" data-name="Layer 2"><g id="Layer_1-2" data-name="Layer 1"><rect class="cls-1" width="18.31" height="19"/><path id="Arrow_-_Left-7" data-name="Arrow - Left-7" class="cls-2" d="M17.44,10.32H1a.82.82,0,0,1-.75-.51A.85.85,0,0,1,.32,9L.4,8.92,7,2.24a.81.81,0,0,1,1.14,0h0a.84.84,0,0,1,.07,1.09l-.07.09L3,8.67H17.34a.83.83,0,0,1,.1,1.65ZM8.15,16.75a.8.8,0,0,1-1.07.08L7,16.76,3.35,13.08a.85.85,0,0,1,0-1.18.81.81,0,0,1,1.08-.08l.08.08,3.64,3.68A.83.83,0,0,1,8.15,16.75Z"/></g></g></svg>