<svg xmlns="http://www.w3.org/2000/svg" viewBox="0 0 479.15 325.32"><defs><style>.cls-1,.cls-2,.cls-5{fill:#099a9b;}.cls-1,.cls-6{opacity:0.2;}.cls-2{opacity:0.5;}.cls-3{fill:#fff;}.cls-4,.cls-6{fill:#dde1e5;}</style></defs><title>assetAsset 57</title><g id="Layer_2" data-name="Layer 2"><g id="Layer_1-2" data-name="Layer 1"><path class="cls-1" d="M73.17,32.59c68.91-26.69,139-3.1,186.46,48.29s147.2-35.47,200.08,15.83c36.08,35,19.55,125-29.92,164-67.25,53-271.77,26.1-316,17.09-51-10.39-88.24-41.91-103.38-80.17C-26.07,105.45,42.71,44.38,73.17,32.59Z"/><path class="cls-2" d="M425.05,85.07a76.54,76.54,0,0,0,.5-8.74c0-1.56-.06-3.11-.15-4.65L411,67a63.5,63.5,0,0,0-5.11-17.32l9.58-11.79a78.43,78.43,0,0,0-7.59-11l-14.45,4.71a64.78,64.78,0,0,0-14.31-11l.82-15.18A76.47,76.47,0,0,0,367.27.93l-8.92,12.31a65,65,0,0,0-10.7-.89,65.91,65.91,0,0,0-7.34.42L332.05,0a77.86,77.86,0,0,0-12.84,3.79l0,15.21a63.94,63.94,0,0,0-14.87,10.23l-14.18-5.47A78.76,78.76,0,0,0,282,34.37L291,46.66a63.47,63.47,0,0,0-6,17l-14.68,3.9a78.94,78.94,0,0,0-.49,8.75c0,1.56.05,3.11.14,4.64l14.45,4.68A63.56,63.56,0,0,0,289.47,103l-9.58,11.79a79.11,79.11,0,0,0,7.59,11l14.45-4.72a64,64,0,0,0,14.31,11l-.82,15.18A77.66,77.66,0,0,0,328,151.73L337,139.41a64.6,64.6,0,0,0,18,.47l8.26,12.77a76.9,76.9,0,0,0,12.84-3.79l0-15.21A63.85,63.85,0,0,0,391,123.42l14.18,5.48a78.59,78.59,0,0,0,8.16-10.62L404.35,106a63.72,63.72,0,0,0,6-17Zm-77.4,21.81A30.55,30.55,0,1,1,378.2,76.33,30.55,30.55,0,0,1,347.65,106.88Z"/><path class="cls-3" d="M389.32,111.17a1.19,1.19,0,0,1-.73-.26,1.15,1.15,0,0,1-.15-1.61,51.68,51.68,0,0,0,9.11-49.78,1.14,1.14,0,1,1,2.16-.75,53.94,53.94,0,0,1-9.51,52A1.15,1.15,0,0,1,389.32,111.17Z"/><path class="cls-3" d="M384.9,39.06a1.12,1.12,0,0,1-.78-.31,51.19,51.19,0,0,0-17.77-10.94,1.14,1.14,0,0,1,.78-2.15,53.63,53.63,0,0,1,18.55,11.43,1.14,1.14,0,0,1-.78,2Z"/><path class="cls-3" d="M335.8,26.33a1.14,1.14,0,0,1-.27-2.25,53.85,53.85,0,0,1,13.22-1.64,1.15,1.15,0,0,1,0,2.29,52.27,52.27,0,0,0-12.67,1.56A.86.86,0,0,1,335.8,26.33Z"/><path class="cls-2" d="M179.51,278.51a54.78,54.78,0,0,0,.34-6.05c0-1.08,0-2.16-.1-3.22l-10-3.24a44.32,44.32,0,0,0-3.54-12l6.63-8.17a53.58,53.58,0,0,0-5.25-7.64l-10,3.26a44.54,44.54,0,0,0-9.91-7.61l.57-10.52a54.6,54.6,0,0,0-8.74-3.1l-6.18,8.53a45.27,45.27,0,0,0-7.41-.62,42.81,42.81,0,0,0-5.09.3l-5.72-8.85a53.36,53.36,0,0,0-8.9,2.63l0,10.53a44.16,44.16,0,0,0-10.3,7.08l-9.82-3.78a54,54,0,0,0-5.66,7.35l6.2,8.51a44,44,0,0,0-4.18,11.78L72.29,266.4a52.74,52.74,0,0,0-.34,6.06q0,1.62.09,3.21l10,3.24a44.15,44.15,0,0,0,3.55,12L79,299.07a55.17,55.17,0,0,0,5.26,7.65l10-3.27a44.65,44.65,0,0,0,9.91,7.62l-.57,10.51a52.08,52.08,0,0,0,8.74,3.1l6.18-8.53a44.11,44.11,0,0,0,7.41.62,45,45,0,0,0,5.09-.29l5.72,8.84a53.22,53.22,0,0,0,8.89-2.62V312.16a44.58,44.58,0,0,0,10.3-7.08l9.82,3.79a54,54,0,0,0,5.65-7.36l-6.2-8.5a43.77,43.77,0,0,0,4.18-11.79ZM125.9,293.62a21.16,21.16,0,1,1,21.16-21.16A21.16,21.16,0,0,1,125.9,293.62Z"/><path class="cls-3" d="M154.76,296.94a1.11,1.11,0,0,1-.73-.26,1.14,1.14,0,0,1-.15-1.61,35.44,35.44,0,0,0,6.25-34.14,1.13,1.13,0,0,1,.7-1.45,1.15,1.15,0,0,1,1.46.7,37.77,37.77,0,0,1-6.65,36.35A1.15,1.15,0,0,1,154.76,296.94Z"/><path class="cls-3" d="M151.69,247a1.17,1.17,0,0,1-.78-.31,35.13,35.13,0,0,0-12.18-7.51,1.14,1.14,0,1,1,.78-2.15,37.64,37.64,0,0,1,13,8,1.15,1.15,0,0,1-.79,2Z"/><path class="cls-3" d="M117.69,238.18a1.14,1.14,0,0,1-.28-2.25,37.81,37.81,0,0,1,9.25-1.15,1.15,1.15,0,0,1,0,2.29,35.66,35.66,0,0,0-8.69,1.07A.9.9,0,0,1,117.69,238.18Z"/><path class="cls-2" d="M471.7,143.25c0-.59,0-1.17-.05-1.75l7.5-6a40.35,40.35,0,0,0-2.72-8.61l-9.69-.73a32.16,32.16,0,0,0-8.38-8.9l0-9.65a40.32,40.32,0,0,0-8.59-3.31l-6.62,7.12a33.17,33.17,0,0,0-3.47-.19,32.11,32.11,0,0,0-8.43,1.13l-7.58-6a40,40,0,0,0-8,4.65l1.43,9.57a32.07,32.07,0,0,0-6.76,9.86l-9.44,2.19a40.74,40.74,0,0,0-1.39,9.1l8.31,4.81a32,32,0,0,0,3.56,11.75L407.16,167a40.67,40.67,0,0,0,6.12,6.66l8.91-3.5A31.94,31.94,0,0,0,434,174.8l4.2,8.65c.5,0,1,0,1.51,0a40.65,40.65,0,0,0,7.37-.67l2.84-9.17a32.06,32.06,0,0,0,11.06-6.42l9.37,2.1a39.94,39.94,0,0,0,5-7.37l-5.43-8A32,32,0,0,0,471.7,143.25Zm-32.4,14.12a13.5,13.5,0,1,1,13.5-13.49A13.49,13.49,0,0,1,439.3,157.37Z"/><rect class="cls-4" x="80.5" y="71.03" width="99.28" height="162.73"/><rect class="cls-3" x="85.7" y="74.35" width="90.82" height="153.22"/><path class="cls-4" d="M142.9,155.73H119.6a2.71,2.71,0,0,1,0-5.42h23.3a2.71,2.71,0,0,1,0,5.42Z"/><path class="cls-4" d="M147.17,164.06H115.33a2.71,2.71,0,0,1,0-5.42h31.84a2.71,2.71,0,0,1,0,5.42Z"/><path class="cls-4" d="M170,194H92.53a1.58,1.58,0,0,1,0-3.15H170a1.58,1.58,0,0,1,0,3.15Z"/><path class="cls-4" d="M170,201.3H92.53a1.57,1.57,0,1,1,0-3.14H170a1.57,1.57,0,0,1,0,3.14Z"/><path class="cls-4" d="M170,208.61H92.53a1.57,1.57,0,1,1,0-3.14H170a1.57,1.57,0,1,1,0,3.14Z"/><path class="cls-4" d="M159.14,137.6H103.36a2.81,2.81,0,0,1-2.8-2.81V83.38a2.81,2.81,0,0,1,2.8-2.8h55.78a2.81,2.81,0,0,1,2.81,2.8v51.41A2.81,2.81,0,0,1,159.14,137.6ZM103.36,82.86a.53.53,0,0,0-.52.52v51.41a.53.53,0,0,0,.52.52h55.78a.53.53,0,0,0,.52-.52V83.38a.53.53,0,0,0-.52-.52Z"/><polygon class="cls-4" points="111.41 171.13 113.03 174.4 116.64 174.92 114.03 177.47 114.64 181.06 111.41 179.37 108.18 181.06 108.8 177.47 106.19 174.92 109.8 174.4 111.41 171.13"/><polygon class="cls-4" points="124.64 171.13 126.25 174.4 129.86 174.92 127.25 177.47 127.87 181.06 124.64 179.37 121.41 181.06 122.03 177.47 119.41 174.92 123.02 174.4 124.64 171.13"/><polygon class="cls-4" points="137.87 171.13 139.48 174.4 143.09 174.92 140.48 177.47 141.09 181.06 137.87 179.37 134.63 181.06 135.25 177.47 132.64 174.92 136.25 174.4 137.87 171.13"/><polygon class="cls-4" points="151.09 171.13 152.71 174.4 156.32 174.92 153.7 177.47 154.32 181.06 151.09 179.37 147.86 181.06 148.48 177.47 145.87 174.92 149.48 174.4 151.09 171.13"/><path class="cls-5" d="M129.37,130.19a1.89,1.89,0,0,1,1.87-1.9h0c6.63,0,14.54-.85,14.54-4.88,0-3.22-4.88-4.85-14.54-4.85-6.63,0-14.53.84-14.53,4.88,0,.9.27,2.07,2.31,3.08a14.16,14.16,0,0,0,3.17,1,1.91,1.91,0,0,1-.78,3.73,17.43,17.43,0,0,1-4-1.34,7,7,0,0,1-4.42-6.46c0-8.69,13.77-8.69,18.29-8.69,5,0,18.3,0,18.3,8.63s-13.77,8.67-18.3,8.67A1.9,1.9,0,0,1,129.37,130.19Z"/><path class="cls-5" d="M123.63,108.26a1.89,1.89,0,0,1-.33-2.65,1.85,1.85,0,0,1,2.61-.34h0a8.57,8.57,0,0,0,5.32,1.82,8.69,8.69,0,1,0-8.64-8.73v0a1.88,1.88,0,0,1-3.76,0h0a12.4,12.4,0,1,1,12.4,12.47A12.24,12.24,0,0,1,123.63,108.26Z"/><rect class="cls-4" x="301.84" y="71.03" width="99.28" height="162.73"/><rect class="cls-3" x="307.04" y="74.35" width="90.82" height="153.22"/><path class="cls-4" d="M364.25,155.73H340.94a2.71,2.71,0,0,1,0-5.42h23.31a2.71,2.71,0,0,1,0,5.42Z"/><path class="cls-4" d="M368.51,164.06H336.68a2.71,2.71,0,1,1,0-5.42h31.83a2.71,2.71,0,1,1,0,5.42Z"/><path class="cls-4" d="M391.31,194H313.88a1.58,1.58,0,0,1,0-3.15h77.43a1.58,1.58,0,1,1,0,3.15Z"/><path class="cls-4" d="M391.31,201.3H313.88a1.57,1.57,0,1,1,0-3.14h77.43a1.57,1.57,0,1,1,0,3.14Z"/><path class="cls-4" d="M391.31,208.61H313.88a1.57,1.57,0,1,1,0-3.14h77.43a1.57,1.57,0,1,1,0,3.14Z"/><path class="cls-4" d="M380.48,137.6H324.71a2.81,2.81,0,0,1-2.81-2.81V83.38a2.81,2.81,0,0,1,2.81-2.8h55.77a2.81,2.81,0,0,1,2.81,2.8v51.41A2.81,2.81,0,0,1,380.48,137.6ZM324.71,82.86a.53.53,0,0,0-.53.52v51.41a.53.53,0,0,0,.53.52h55.77a.53.53,0,0,0,.53-.52V83.38a.53.53,0,0,0-.53-.52Z"/><polygon class="cls-4" points="332.76 171.13 334.37 174.4 337.98 174.92 335.37 177.47 335.99 181.06 332.76 179.37 329.53 181.06 330.14 177.47 327.53 174.92 331.14 174.4 332.76 171.13"/><polygon class="cls-4" points="345.98 171.13 347.6 174.4 351.21 174.92 348.6 177.47 349.21 181.06 345.98 179.37 342.75 181.06 343.37 177.47 340.76 174.92 344.37 174.4 345.98 171.13"/><polygon class="cls-4" points="359.21 171.13 360.82 174.4 364.43 174.92 361.82 177.47 362.44 181.06 359.21 179.37 355.98 181.06 356.6 177.47 353.98 174.92 357.59 174.4 359.21 171.13"/><polygon class="cls-4" points="372.44 171.13 374.05 174.4 377.66 174.92 375.05 177.47 375.67 181.06 372.44 179.37 369.2 181.06 369.82 177.47 367.21 174.92 370.82 174.4 372.44 171.13"/><path class="cls-5" d="M350.58,130.19a1.88,1.88,0,0,1,1.86-1.9h0c6.64,0,14.54-.85,14.54-4.88,0-3.22-4.88-4.85-14.54-4.85-6.63,0-14.53.84-14.53,4.88,0,.9.27,2.07,2.31,3.08a14.16,14.16,0,0,0,3.17,1,1.91,1.91,0,0,1-.78,3.73,17.43,17.43,0,0,1-4-1.34,7,7,0,0,1-4.42-6.46c0-8.69,13.77-8.69,18.29-8.69,5,0,18.3,0,18.3,8.63s-13.77,8.67-18.3,8.67A1.89,1.89,0,0,1,350.58,130.19Z"/><path class="cls-5" d="M344.83,108.26a1.89,1.89,0,0,1-.33-2.65,1.87,1.87,0,0,1,2.62-.34h0a8.52,8.52,0,0,0,5.31,1.82,8.69,8.69,0,1,0-8.64-8.73v0a1.88,1.88,0,0,1-3.76,0h0a12.4,12.4,0,1,1,12.4,12.47A12.24,12.24,0,0,1,344.83,108.26Z"/><polygon class="cls-6" points="313 232.14 156.32 232.14 167.4 71.64 318.65 71.64 313 232.14"/><rect class="cls-4" x="172.78" y="41.26" width="135.61" height="222.27"/><rect class="cls-3" x="179.88" y="45.79" width="124.05" height="209.27"/><path class="cls-4" d="M271,157H213.15a3.7,3.7,0,0,1,0-7.4H271a3.7,3.7,0,0,1,0,7.4Z"/><path class="cls-4" d="M263.84,168.32H220.36a3.7,3.7,0,0,1,0-7.4h43.48a3.7,3.7,0,1,1,0,7.4Z"/><path class="cls-4" d="M295,209.21H189.21a2.15,2.15,0,0,1,0-4.29H295a2.15,2.15,0,1,1,0,4.29Z"/><path class="cls-4" d="M295,219.19H189.21a2.15,2.15,0,0,1,0-4.29H295a2.15,2.15,0,1,1,0,4.29Z"/><path class="cls-4" d="M295,229.17H189.21a2.15,2.15,0,0,1,0-4.29H295a2.15,2.15,0,1,1,0,4.29Z"/><path class="cls-4" d="M280.19,131.76H204a3.42,3.42,0,0,1-3.42-3.41V58.13A3.42,3.42,0,0,1,204,54.72h76.18a3.41,3.41,0,0,1,3.41,3.41v70.22A3.41,3.41,0,0,1,280.19,131.76ZM204,57a1.14,1.14,0,0,0-1.14,1.13v70.22a1.14,1.14,0,0,0,1.14,1.13h76.18a1.14,1.14,0,0,0,1.13-1.13V58.13A1.14,1.14,0,0,0,280.19,57Z"/><polygon class="cls-4" points="205.82 177.98 208.03 182.45 212.96 183.16 209.39 186.64 210.23 191.55 205.82 189.23 201.41 191.55 202.25 186.64 198.69 183.16 203.62 182.45 205.82 177.98"/><polygon class="cls-4" points="223.89 177.98 226.09 182.45 231.03 183.16 227.46 186.64 228.3 191.55 223.89 189.23 219.48 191.55 220.32 186.64 216.75 183.16 221.68 182.45 223.89 177.98"/><polygon class="cls-4" points="241.95 177.98 244.16 182.45 249.09 183.16 245.52 186.64 246.36 191.55 241.95 189.23 237.54 191.55 238.38 186.64 234.82 183.16 239.75 182.45 241.95 177.98"/><polygon class="cls-4" points="260.02 177.98 262.22 182.45 267.15 183.16 263.59 186.64 264.43 191.55 260.02 189.23 255.61 191.55 256.45 186.64 252.88 183.16 257.81 182.45 260.02 177.98"/><polygon class="cls-4" points="278.37 177.98 280.57 182.45 285.51 183.16 281.94 186.64 282.78 191.55 278.37 189.23 273.96 191.55 274.8 186.64 271.23 183.16 276.16 182.45 278.37 177.98"/><path class="cls-5" d="M239.55,122.14a2.35,2.35,0,0,1,2.34-2.38h0c8.32,0,18.24-1.07,18.24-6.13,0-4-6.13-6.08-18.24-6.08-8.32,0-18.23,1.06-18.23,6.13,0,1.13.34,2.58,2.9,3.85a17.33,17.33,0,0,0,4,1.3,2.39,2.39,0,0,1-1,4.67,22,22,0,0,1-5.07-1.67,8.77,8.77,0,0,1-5.55-8.11c0-10.9,17.27-10.9,23-10.9,6.28,0,23,0,23,10.83s-17.27,10.88-23,10.88A2.39,2.39,0,0,1,239.55,122.14Z"/><path class="cls-5" d="M232.34,94.64a2.39,2.39,0,0,1-.42-3.33,2.35,2.35,0,0,1,3.29-.44l0,0a10.71,10.71,0,0,0,6.67,2.28,10.9,10.9,0,1,0-10.84-11v.06a2.36,2.36,0,1,1-4.71,0h0a15.52,15.52,0,1,1,6,12.36Z"/></g></g></svg>