<svg xmlns="http://www.w3.org/2000/svg" viewBox="0 0 318.75 222.27"><defs><style>.cls-1,.cls-2,.cls-5{fill:#099a9b;}.cls-1{opacity:0.2;}.cls-2{opacity:0.5;}.cls-3{fill:#fff;}.cls-4{fill:#dde1e5;}</style></defs><title>assetAsset 56</title><g id="Layer_2" data-name="Layer 2"><g id="Layer_1-2" data-name="Layer 1"><path class="cls-1" d="M69.36,24.49c42.34-16.39,85.36-1.9,114.55,29.66s90.42-21.78,122.9,9.73c22.17,21.5,12,76.8-18.38,100.74-41.31,32.55-166.95,16-194.12,10.5-31.31-6.38-54.2-25.75-63.5-49.25C8.4,69.25,50.65,31.73,69.36,24.49Z"/><path class="cls-2" d="M280.67,77.3a45.28,45.28,0,0,0,.28-5c0-.89,0-1.77-.08-2.64L272.66,67a36.33,36.33,0,0,0-2.91-9.84l5.45-6.7a45,45,0,0,0-4.32-6.27l-8.21,2.68a37,37,0,0,0-8.13-6.25L255,32a43.54,43.54,0,0,0-7.17-2.54l-5.07,7a36.77,36.77,0,0,0-6.08-.51,35.92,35.92,0,0,0-4.17.24L227.81,29a43.74,43.74,0,0,0-7.29,2.16v8.64a36.58,36.58,0,0,0-8.45,5.81L204,42.46a43.92,43.92,0,0,0-4.64,6l5.08,7A36,36,0,0,0,201,65.14l-8.34,2.22a42.94,42.94,0,0,0-.28,5c0,.89,0,1.77.08,2.64l8.21,2.66a36.23,36.23,0,0,0,2.91,9.84l-5.45,6.7a44.43,44.43,0,0,0,4.32,6.27l8.21-2.68a36.16,36.16,0,0,0,8.13,6.25l-.47,8.63a44.2,44.2,0,0,0,7.17,2.54l5.08-7a36.44,36.44,0,0,0,10.25.27l4.69,7.26a43.57,43.57,0,0,0,7.3-2.16v-8.64a36.79,36.79,0,0,0,8.45-5.81l8.06,3.11a44,44,0,0,0,4.64-6l-5.09-7a35.68,35.68,0,0,0,3.43-9.67Zm-44,12.39a17.36,17.36,0,1,1,17.37-17.36A17.36,17.36,0,0,1,236.68,89.69Z"/><path class="cls-3" d="M260.37,92.13A.66.66,0,0,1,260,92a.64.64,0,0,1-.08-.91A29.39,29.39,0,0,0,265,62.78a.65.65,0,0,1,1.23-.43,30.69,30.69,0,0,1-5.41,29.55A.64.64,0,0,1,260.37,92.13Z"/><path class="cls-3" d="M257.85,51.15a.66.66,0,0,1-.44-.17,29.13,29.13,0,0,0-10.1-6.22.65.65,0,0,1-.39-.83.64.64,0,0,1,.83-.39A30.41,30.41,0,0,1,258.3,50a.65.65,0,0,1-.45,1.12Z"/><path class="cls-3" d="M230,43.92a.65.65,0,0,1-.16-1.28,30.61,30.61,0,0,1,7.52-.93.65.65,0,1,1,0,1.3,29.46,29.46,0,0,0-7.2.89Z"/><path class="cls-2" d="M82.6,120.36a42.07,42.07,0,0,0,.26-4.65c0-.83,0-1.65-.07-2.47l-7.69-2.49a33.69,33.69,0,0,0-2.72-9.21l5.09-6.27a41.51,41.51,0,0,0-4-5.87l-7.69,2.51a34.2,34.2,0,0,0-7.61-5.85L58.58,78a41.7,41.7,0,0,0-6.71-2.37l-4.75,6.55a33.35,33.35,0,0,0-5.69-.48,36.16,36.16,0,0,0-3.91.22l-4.39-6.79a41.06,41.06,0,0,0-6.83,2v8.09a34.23,34.23,0,0,0-7.91,5.44l-7.54-2.91A41.13,41.13,0,0,0,6.52,93.4l4.76,6.53a33.51,33.51,0,0,0-3.21,9L.26,111.06A42.07,42.07,0,0,0,0,115.71c0,.83,0,1.65.08,2.47l7.68,2.49a33.69,33.69,0,0,0,2.72,9.21l-5.09,6.27a42.36,42.36,0,0,0,4,5.87l7.69-2.51a34.2,34.2,0,0,0,7.61,5.85l-.44,8.08A41.7,41.7,0,0,0,31,155.81l4.75-6.55a34.4,34.4,0,0,0,5.69.48,33.65,33.65,0,0,0,3.91-.23l4.39,6.8a41.06,41.06,0,0,0,6.83-2V146.2a34,34,0,0,0,7.91-5.44L72,143.67A41.13,41.13,0,0,0,76.34,138l-4.76-6.53a33.51,33.51,0,0,0,3.21-9.05ZM41.43,132a16.25,16.25,0,1,1,16.25-16.25A16.26,16.26,0,0,1,41.43,132Z"/><path class="cls-3" d="M63.59,134.51a.87.87,0,0,1-.67-1.44,27.23,27.23,0,0,0,4.8-26.21.87.87,0,1,1,1.65-.58,28.71,28.71,0,0,1,1.57,9.43,29,29,0,0,1-6.67,18.49A.91.91,0,0,1,63.59,134.51Z"/><path class="cls-3" d="M61.24,96.16a.88.88,0,0,1-.6-.24,26.93,26.93,0,0,0-9.36-5.76A.88.88,0,0,1,50.76,89a.87.87,0,0,1,1.12-.52,28.76,28.76,0,0,1,10,6.13.87.87,0,0,1,0,1.24A.86.86,0,0,1,61.24,96.16Z"/><path class="cls-3" d="M35.13,89.39a.88.88,0,0,1-.85-.67.87.87,0,0,1,.63-1.06A29.21,29.21,0,0,1,42,86.78a.88.88,0,0,1,0,1.75,27.23,27.23,0,0,0-6.68.83A.76.76,0,0,1,35.13,89.39Z"/><path class="cls-2" d="M307.18,149.93c0-.33,0-.66,0-1l4.27-3.42a23.22,23.22,0,0,0-1.55-4.89l-5.51-.42a18.32,18.32,0,0,0-4.76-5l0-5.49a22.63,22.63,0,0,0-4.88-1.88l-3.76,4.05a18.29,18.29,0,0,0-2-.11,18,18,0,0,0-4.79.64l-4.31-3.42a23.07,23.07,0,0,0-4.57,2.65l.82,5.43a18.13,18.13,0,0,0-3.84,5.61l-5.37,1.24a23.23,23.23,0,0,0-.79,5.18l4.73,2.73a18,18,0,0,0,2,6.68l-2.37,4.95A23.17,23.17,0,0,0,274,167.2l5.07-2a17.91,17.91,0,0,0,6.68,2.65l2.39,4.92.85,0a23.16,23.16,0,0,0,4.19-.39l1.61-5.21a18,18,0,0,0,6.29-3.65l5.33,1.2a23,23,0,0,0,2.83-4.19L306.14,156A18.38,18.38,0,0,0,307.18,149.93Zm-18.41,8a7.67,7.67,0,1,1,7.67-7.67A7.67,7.67,0,0,1,288.77,158Z"/><rect class="cls-4" x="91.57" width="135.61" height="222.27"/><rect class="cls-3" x="98.67" y="4.53" width="124.05" height="209.27"/><path class="cls-4" d="M189.84,115.69H132a3.7,3.7,0,1,1,0-7.4h57.89a3.7,3.7,0,0,1,0,7.4Z"/><path class="cls-4" d="M182.63,127.06H139.15a3.7,3.7,0,0,1,0-7.4h43.48a3.7,3.7,0,1,1,0,7.4Z"/><path class="cls-4" d="M213.78,168H108a2.15,2.15,0,0,1,0-4.3H213.78a2.15,2.15,0,0,1,0,4.3Z"/><path class="cls-4" d="M213.78,177.93H108a2.15,2.15,0,1,1,0-4.29H213.78a2.15,2.15,0,0,1,0,4.29Z"/><path class="cls-4" d="M213.78,187.91H108a2.15,2.15,0,1,1,0-4.29H213.78a2.15,2.15,0,0,1,0,4.29Z"/><path class="cls-4" d="M199,90.5H122.8a3.42,3.42,0,0,1-3.41-3.42V16.87a3.42,3.42,0,0,1,3.41-3.42H199a3.42,3.42,0,0,1,3.42,3.42V87.08A3.42,3.42,0,0,1,199,90.5ZM122.8,15.74a1.14,1.14,0,0,0-1.13,1.13V87.08a1.13,1.13,0,0,0,1.13,1.13H199a1.13,1.13,0,0,0,1.14-1.13V16.87A1.14,1.14,0,0,0,199,15.74Z"/><polygon class="cls-4" points="124.62 136.71 126.83 141.18 131.76 141.9 128.19 145.38 129.03 150.29 124.62 147.97 120.21 150.29 121.05 145.38 117.48 141.9 122.42 141.18 124.62 136.71"/><polygon class="cls-4" points="142.69 136.71 144.89 141.18 149.82 141.9 146.25 145.38 147.1 150.29 142.69 147.97 138.28 150.29 139.12 145.38 135.55 141.9 140.48 141.18 142.69 136.71"/><polygon class="cls-4" points="160.75 136.71 162.96 141.18 167.89 141.9 164.32 145.38 165.16 150.29 160.75 147.97 156.34 150.29 157.18 145.38 153.61 141.9 158.54 141.18 160.75 136.71"/><polygon class="cls-4" points="178.82 136.71 181.02 141.18 185.95 141.9 182.38 145.38 183.23 150.29 178.82 147.97 174.41 150.29 175.25 145.38 171.68 141.9 176.61 141.18 178.82 136.71"/><polygon class="cls-4" points="197.17 136.71 199.37 141.18 204.31 141.9 200.74 145.38 201.58 150.29 197.17 147.97 192.76 150.29 193.6 145.38 190.03 141.9 194.96 141.18 197.17 136.71"/><path class="cls-5" d="M158.34,80.88a2.37,2.37,0,0,1,2.35-2.39h0c8.32,0,18.24-1.06,18.24-6.13,0-4-6.13-6.08-18.24-6.08-8.32,0-18.23,1.07-18.23,6.13,0,1.13.34,2.59,2.9,3.86a17.39,17.39,0,0,0,4,1.29,2.39,2.39,0,0,1-1,4.68,22.66,22.66,0,0,1-5.07-1.67,8.78,8.78,0,0,1-5.54-8.12c0-10.89,17.27-10.89,22.95-10.89,6.28,0,23,0,23,10.82s-17.27,10.88-23,10.88A2.38,2.38,0,0,1,158.34,80.88Z"/><path class="cls-5" d="M151.14,53.37a2.38,2.38,0,0,1-.42-3.33,2.34,2.34,0,0,1,3.28-.43l0,0a10.73,10.73,0,0,0,6.67,2.28A10.9,10.9,0,1,0,149.86,41v0a2.36,2.36,0,0,1-4.71,0h0A15.55,15.55,0,1,1,160.7,56.65,15.32,15.32,0,0,1,151.14,53.37Z"/></g></g></svg>