<svg xmlns="http://www.w3.org/2000/svg" viewBox="0 0 18.31 19"><defs><style>.cls-1{fill:none;}.cls-2{fill:#04999a;}</style></defs><title>Asset 100</title><g id="Layer_2" data-name="Layer 2"><g id="Layer_1-2" data-name="Layer 1"><rect class="cls-1" width="18.31" height="19"/><path id="Calendar-7" class="cls-2" d="M6,19C2.42,19,.61,17.4.61,14.24V6.38a4.3,4.3,0,0,1,2-4,.66.66,0,0,1,.69,0,.67.67,0,0,1,.24.93.65.65,0,0,1-.3.27A3,3,0,0,0,1.92,6.38v.25H14A.67.67,0,1,1,14,8h-12v6.28c0,2.41,1.17,3.41,4,3.43h6.41c2.82,0,4-1,4-3.44V6.37c0-2.1-.92-3.12-3-3.36v.64a.65.65,0,0,1-.73.57.66.66,0,0,1-.58-.62v-3a.7.7,0,0,1,.21-.47A.65.65,0,0,1,12.77,0a.67.67,0,0,1,.62.7v1c2.86.28,4.32,1.86,4.32,4.7v7.86c0,3.16-1.8,4.76-5.34,4.76Zm6.36-4.67a.84.84,0,0,1,.83-.84h0a.82.82,0,0,1,.59.24.81.81,0,0,1,.24.6.82.82,0,0,1-.79.85.83.83,0,0,1-.86-.8v-.05Zm-4,0a.83.83,0,1,1,.82.84.84.84,0,0,1-.83-.84h0Zm-4,0a.84.84,0,0,1,.83-.84h0a.78.78,0,0,1,.58.24.84.84,0,0,1,.25.6.83.83,0,0,1-.8.85.81.81,0,0,1-.85-.8v-.05Zm7.92-3.4a.84.84,0,0,1,.83-.84h0a.78.78,0,0,1,.59.24.87.87,0,0,1,.24.6.83.83,0,1,1-1.65.05v-.05Zm-4,0a.84.84,0,0,1,.85-.82.83.83,0,0,1,0,1.66.84.84,0,0,1-.83-.84Zm-3.95,0a.82.82,0,0,1,.82-.84h0a.75.75,0,0,1,.58.24.85.85,0,0,1-.55,1.45A.81.81,0,0,1,4.4,11v-.05ZM5.57,4.28a.68.68,0,0,1-.64-.68V.7A.67.67,0,0,1,5.65.1a.66.66,0,0,1,.6.6v.92H10a.66.66,0,0,1,.67.66A.67.67,0,0,1,10,3H6.23v.66A.71.71,0,0,1,6,4.09a.66.66,0,0,1-.46.19Z"/></g></g></svg>