<svg xmlns="http://www.w3.org/2000/svg" viewBox="0 0 11.16 11.16"><defs><style>.cls-1{fill:none;}.cls-2{fill:#04999a;}</style></defs><title>assetAsset 72</title><g id="Layer_2" data-name="Layer 2"><g id="Layer_1-2" data-name="Layer 1"><rect class="cls-1" width="11.16" height="11.16"/><path id="Call-9" class="cls-2" d="M7,9.74A13.9,13.9,0,0,1,2.1,5.42.34.34,0,0,1,2.19,5,.33.33,0,0,1,2.65,5h0A13.24,13.24,0,0,0,7.22,9.13c.54.25.94.27,1.23,0s.9-.79.89-1.14a.5.5,0,0,0-.13-.19,8.06,8.06,0,0,0-1.29-1c-.14,0-.29,0-.51.19l-.11.07a.33.33,0,1,1-.36-.55H7l.1-.07a1.41,1.41,0,0,1,1-.28A7.09,7.09,0,0,1,9.68,7.39,1,1,0,0,1,10,8c0,.82-1.05,1.67-1.18,1.74A1.43,1.43,0,0,1,8,10,2.45,2.45,0,0,1,7,9.74ZM5.57,6.62A4.55,4.55,0,0,1,4,4.58a1.06,1.06,0,0,1,.16-1,.58.58,0,0,0,.13-.39A7.83,7.83,0,0,0,3.31,2a.36.36,0,0,0-.21-.13c-.31,0-1,.62-1.11.86A1.19,1.19,0,0,0,2,3.94a.33.33,0,0,1-.18.43.33.33,0,0,1-.43-.16,1.81,1.81,0,0,1,0-1.89c.14-.22,1-1.2,1.7-1.15a1,1,0,0,1,.64.31A7.05,7.05,0,0,1,4.93,3.09a1.18,1.18,0,0,1-.21.85c-.11.2-.15.29-.11.4A3.86,3.86,0,0,0,6,6.08a.33.33,0,1,1-.39.54Z"/></g></g></svg>