<svg xmlns="http://www.w3.org/2000/svg" viewBox="0 0 18.31 19"><defs><style>.cls-1{fill:none;}.cls-2{fill:#04999a;}</style></defs><title>assetAsset 67</title><g id="Layer_2" data-name="Layer 2"><g id="Layer_1-2" data-name="Layer 1"><rect class="cls-1" width="18.31" height="19"/><path id="Image_2-7" data-name="Image 2-7" class="cls-2" d="M5.65,17.55A4.4,4.4,0,0,1,1.11,12.8V6.2A4.39,4.39,0,0,1,5.65,1.46h7A4.39,4.39,0,0,1,17.2,6.2V8.1a.57.57,0,0,1-.56.57.58.58,0,0,1-.57-.57h0V6.2a3.3,3.3,0,0,0-3.41-3.62h-7A3.3,3.3,0,0,0,2.23,6.2v6.6a3.3,3.3,0,0,0,3.42,3.62h7a3.3,3.3,0,0,0,3.42-3.62v-.87l-.38-.32c-.88-.77-1.8-1.56-2.79-1.32-.7.16-1.09.73-1.54,1.4a5,5,0,0,1-1.44,1.57,2.84,2.84,0,0,1-2.74-.18L7.06,13a1.71,1.71,0,0,0-2.16.28.55.55,0,0,1-.79-.06.56.56,0,0,1,0-.73A2.79,2.79,0,0,1,7.51,12l.13.06c.74.32,1.26.52,1.7.25a4.12,4.12,0,0,0,1.1-1.25,3.82,3.82,0,0,1,2.21-1.87c1.56-.36,2.8.71,3.79,1.57l.55.47a.56.56,0,0,1,.21.44V12.8a4.4,4.4,0,0,1-4.54,4.75ZM4.57,6.91A2.06,2.06,0,1,1,6.63,9,2.06,2.06,0,0,1,4.57,6.91Zm1.12,0A.94.94,0,1,0,6.63,6h0a.94.94,0,0,0-.93.94Z"/></g></g></svg>