<svg xmlns="http://www.w3.org/2000/svg" viewBox="0 0 18.31 19"><defs><style>.cls-1{fill:none;}.cls-2{fill:#04999a;}</style></defs><title>assetAsset 61</title><g id="Layer_2" data-name="Layer 2"><g id="Layer_1-2" data-name="Layer 1"><rect class="cls-1" width="18.31" height="19"/><path id="Upload-7" class="cls-2" d="M16.21,12.38a.6.6,0,0,1,.59.59v1.09a3.46,3.46,0,0,1-3.4,3.49.61.61,0,0,1-.59-.61h0a.59.59,0,0,1,.59-.6h0a2.26,2.26,0,0,0,2.22-2.28V13a.59.59,0,0,1,.59-.59ZM2.1,7.91a.58.58,0,0,1,.59.59v5.57A2.25,2.25,0,0,0,4.9,16.34h5.82a.61.61,0,1,1,0,1.21H4.9a3.45,3.45,0,0,1-3.39-3.48V8.5a.58.58,0,0,1,.59-.59Z"/><path class="cls-2" d="M5,8.27V2.06A.6.6,0,0,1,5.4,1.5.58.58,0,0,1,6,1.63L8.27,3.92a.62.62,0,0,1,0,.86.58.58,0,0,1-.82,0h0L6.21,3.52V8.27A.59.59,0,1,1,5,8.27Z"/><path class="cls-2" d="M3,4.78a.62.62,0,0,1,0-.86l.56-.57a.58.58,0,0,1,.82,0h0a.62.62,0,0,1,0,.86l-.56.57a.58.58,0,0,1-.82,0v0Z"/><path class="cls-2" d="M13.27,5v6.51a.62.62,0,0,1-.36.56.57.57,0,0,1-.64-.14L10,9.59a.61.61,0,0,1,0-.85.57.57,0,0,1,.82,0h0L12.1,10V5a.59.59,0,1,1,1.17,0Z"/><path class="cls-2" d="M15.32,8.74a.61.61,0,0,1,0,.85l-.55.58a.58.58,0,0,1-.82,0v0a.61.61,0,0,1,0-.85l.56-.58a.58.58,0,0,1,.82,0Z"/></g></g></svg>