<svg xmlns="http://www.w3.org/2000/svg" viewBox="0 0 20.65 20"><defs><style>.cls-1{fill:#04999a;}</style></defs><title>assetAsset 89</title><g id="Layer_2" data-name="Layer 2"><g id="Layer_1-2" data-name="Layer 1"><path class="cls-1" d="M0,2.58a.65.65,0,0,0,.65.65h2L3.87,17.48h0A2.58,2.58,0,0,0,9,18.07H11.7a2.59,2.59,0,1,0,0-1.29H9A2.58,2.58,0,0,0,5,15.3L4.8,13.22h.07l13.23-.65a.65.65,0,0,0,.59-.47l1.93-6.77a.64.64,0,0,0-.1-.57A.67.67,0,0,0,20,4.52H17.91l-1.16-4A.64.64,0,0,0,16.13,0H11.61a.64.64,0,0,0-.45.19L9.41,1.94h-3a.64.64,0,0,0-.62.48L5.3,4.52H4l-.17-2a.64.64,0,0,0-.64-.59H.65A.64.64,0,0,0,0,2.58ZM14.19,16.13a1.29,1.29,0,1,1-1.29,1.29A1.29,1.29,0,0,1,14.19,16.13Zm-7.74,0a1.29,1.29,0,1,1-1.29,1.29A1.29,1.29,0,0,1,6.45,16.13ZM11.88,1.29h3.76l.93,3.23H10.83l-.44-1.74ZM7,3.23H9.17L9.5,4.52H6.63ZM17.42,5.81h1.73l-1.58,5.5-12.76.63H4.69L4.15,5.81Z"/></g></g></svg>