<svg xmlns="http://www.w3.org/2000/svg" viewBox="0 0 20.65 18.07"><defs><style>.cls-1{fill:#04999a;}</style></defs><title>assetAsset 88</title><g id="Layer_2" data-name="Layer 2"><g id="Layer_1-2" data-name="Layer 1"><path class="cls-1" d="M4,2.58l-.17-2A.65.65,0,0,0,3.23,0H.65a.65.65,0,1,0,0,1.29h2L3.87,15.54h0A2.58,2.58,0,0,0,9,16.13H11.7a2.59,2.59,0,1,0,0-1.29H9a2.57,2.57,0,0,0-4-1.47L4.8,11.29h.07l13.23-.64a.68.68,0,0,0,.59-.47L20.62,3.4a.63.63,0,0,0-.1-.56A.68.68,0,0,0,20,2.58ZM14.19,14.19a1.3,1.3,0,1,1-1.29,1.29A1.29,1.29,0,0,1,14.19,14.19Zm-7.74,0a1.3,1.3,0,1,1-1.29,1.29A1.29,1.29,0,0,1,6.45,14.19Zm11-10.32h1.73L17.57,9.38,4.81,10l-.12,0L4.15,3.87Z"/></g></g></svg>