<svg xmlns="http://www.w3.org/2000/svg" viewBox="0 0 18.31 19"><defs><style>.cls-1{fill:none;}.cls-2{fill:#04999a;}</style></defs><title>assetAsset 68</title><g id="Layer_2" data-name="Layer 2"><g id="Layer_1-2" data-name="Layer 1"><rect class="cls-1" width="18.31" height="19"/><path id="_3_User-6" data-name=" 3 User-6" class="cls-2" d="M8.58,15.81a.59.59,0,0,1,.57-.59h0c2,0,4.46-.26,4.46-1.49,0-1-1.5-1.49-4.46-1.49-2,0-4.45.26-4.45,1.5,0,.27.08.63.71.94a4.79,4.79,0,0,0,1,.32.57.57,0,0,1,.45.69.58.58,0,0,1-.69.45,5.47,5.47,0,0,1-1.24-.41,2.14,2.14,0,0,1-1.35-2c0-2.66,4.22-2.66,5.6-2.66,1.54,0,5.61,0,5.61,2.64s-4.22,2.66-5.61,2.66A.59.59,0,0,1,8.58,15.81Zm7-1.74a.58.58,0,0,1,.45-.68c.79-.17,1-.41,1-.51a.62.62,0,0,0,0-.5c-.1-.21-.48-.4-1-.5A6.92,6.92,0,0,0,15,11.71a.6.6,0,0,1-.43-.71.58.58,0,0,1,.5-.43,7.89,7.89,0,0,1,1.28.18,2.38,2.38,0,0,1,1.83,1.14,1.76,1.76,0,0,1,0,1.49,2.43,2.43,0,0,1-1.83,1.15h-.12a.57.57,0,0,1-.57-.47ZM2,14.52A2.43,2.43,0,0,1,.17,13.37a1.7,1.7,0,0,1,0-1.49A2.4,2.4,0,0,1,2,10.73a9,9,0,0,1,1.27-.18.58.58,0,0,1,.56.6.59.59,0,0,1-.48.56,6.06,6.06,0,0,0-1.11.16c-.56.11-.94.29-1,.5a.62.62,0,0,0,0,.5c.05.1.24.35,1,.51a.59.59,0,0,1,.42.71.57.57,0,0,1-.53.44ZM6.82,9.09a.59.59,0,0,1-.1-.82.57.57,0,0,1,.8-.1h0a2.62,2.62,0,0,0,1.63.56A2.66,2.66,0,1,0,6.51,6.06h0a.58.58,0,0,1-1.16,0h0a3.8,3.8,0,1,1,1.47,3Zm6.49-.6a.57.57,0,0,1,.57-.58h0a1.86,1.86,0,0,0,0-3.72.58.58,0,0,1,0-1.15,3,3,0,0,1,0,6A.57.57,0,0,1,13.31,8.49ZM1.43,6a3,3,0,0,1,3-3A.57.57,0,0,1,5,3.65a.58.58,0,0,1-.51.52,1.87,1.87,0,1,0,0,3.73.58.58,0,0,1,0,1.15A3,3,0,0,1,1.43,6Z"/></g></g></svg>