<svg xmlns="http://www.w3.org/2000/svg" viewBox="0 0 10.13 10.13"><defs><style>.cls-1{fill:#04999a;}.cls-2{fill:#fff;}</style></defs><title>assetAsset 76</title><g id="Layer_2" data-name="Layer 2"><g id="Layer_1-2" data-name="Layer 1"><circle class="cls-1" cx="5.06" cy="5.06" r="5.06"/><path id="Close_Square-6" data-name="Close Square-6" class="cls-2" d="M4.09,7.65A1.5,1.5,0,0,1,2.47,6V4.09A1.5,1.5,0,0,1,4.09,2.47H6A1.5,1.5,0,0,1,7.65,4.09v.67a.19.19,0,0,1-.2.19h0a.21.21,0,0,1-.2-.2V4.09A1.1,1.1,0,0,0,6,2.87H4.09A1.11,1.11,0,0,0,2.87,4.09V6A1.1,1.1,0,0,0,4.09,7.25H6A1.1,1.1,0,0,0,7.25,6a.2.2,0,0,1,.4,0A1.5,1.5,0,0,1,6,7.65Zm.23-1.83h0a.2.2,0,0,1,0-.28l.18-.18a.19.19,0,0,1,.28,0,.2.2,0,0,1,0,.28h0l-.18.17A.18.18,0,0,1,4.32,5.82Zm1.28,0h0L4.35,4.54a.2.2,0,0,1,.28-.29h0l.48.48.44-.44a.19.19,0,0,1,.28,0l0,0a.21.21,0,0,1,0,.24L5.4,5l.47.47a.19.19,0,0,1,0,.28h0a.2.2,0,0,1-.28,0Z"/></g></g></svg>