<svg xmlns="http://www.w3.org/2000/svg" viewBox="0 0 10.09 10.08"><defs><style>.cls-1{fill:#04999a;}</style></defs><title>assetAsset 84</title><g id="Layer_2" data-name="Layer 2"><g id="Layer_1-2" data-name="Layer 1"><path class="cls-1" d="M.24,1.48,2.08,3.32a.88.88,0,0,0,1.3-1.19L1.53.28A.91.91,0,0,0,.27.23l0,0h0A.87.87,0,0,0,.24,1.48Z"/><path class="cls-1" d="M6.42,5.13,9.84,1.71a.87.87,0,0,0,0-1.23,1,1,0,0,0-1.3,0L.45,8.59A.88.88,0,0,0,.38,9.72l.15.16A.89.89,0,0,0,1.74,9.8l3.4-3.38L8.26,9.55a.89.89,0,0,0,1.07.14,1,1,0,0,0,.22-.16.91.91,0,0,0,0-1.26Z"/></g></g></svg>