<svg xmlns="http://www.w3.org/2000/svg" viewBox="0 0 10.13 10.13"><defs><style>.cls-1{fill:#04999a;}.cls-2{fill:#fff;}</style></defs><title>assetAsset 78</title><g id="Layer_2" data-name="Layer 2"><g id="Layer_1-2" data-name="Layer 1"><circle class="cls-1" cx="5.06" cy="5.06" r="5.06"/><path id="Paper-7" class="cls-2" d="M4.05,7.65A1.19,1.19,0,0,1,2.86,6.46V5.78a.2.2,0,0,1,.2-.19.2.2,0,0,1,.19.19v.66A.8.8,0,0,0,4,7.26H6.11a.83.83,0,0,0,.77-.82V4.13l-1-1v.34a.47.47,0,0,0,.47.47.2.2,0,0,1,.19.2.19.19,0,0,1-.19.19h0a.86.86,0,0,1-.86-.86V2.87H4.05a.79.79,0,0,0-.8.77V4.72a.2.2,0,1,1-.39,0V3.64A1.19,1.19,0,0,1,4.05,2.48H5.76a.2.2,0,0,1,.14.06L7.21,3.91a.24.24,0,0,1,0,.14V6.44A1.19,1.19,0,0,1,6.11,7.65Zm.2-1.45A.18.18,0,0,1,4.06,6a.19.19,0,0,1,.19-.2h1.4a.2.2,0,0,1,.19.2.19.19,0,0,1-.19.19Zm0-1.29a.19.19,0,0,1-.19-.19.19.19,0,0,1,.19-.2h.87a.19.19,0,0,1,.19.2.19.19,0,0,1-.19.19Z"/></g></g></svg>