<svg xmlns="http://www.w3.org/2000/svg" viewBox="0 0 18.31 19"><defs><style>.cls-1{fill:none;}.cls-2{fill:#04999a;}</style></defs><title>assetAsset 66</title><g id="Layer_2" data-name="Layer 2"><g id="Layer_1-2" data-name="Layer 1"><rect class="cls-1" width="18.31" height="19"/><path id="Buy-7" class="cls-2" d="M13.31,16.3a1.22,1.22,0,1,1,1.21,1.25A1.24,1.24,0,0,1,13.31,16.3Zm-9.06,0a1.22,1.22,0,1,1,1.22,1.25A1.24,1.24,0,0,1,4.25,16.3Zm1.36-2.54a2.07,2.07,0,0,1-2.05-1.93L2.83,2.89,1.61,2.68A.62.62,0,0,1,1.12,2a.61.61,0,0,1,.69-.51h0l1.67.3a.62.62,0,0,1,.5.56l.77,9.41a.86.86,0,0,0,.85.8h8.77a.85.85,0,0,0,.84-.74L16,6.4a.47.47,0,0,0-.47-.55h0a.62.62,0,0,1,0-1.24h0a1.66,1.66,0,0,1,1.27.6,1.73,1.73,0,0,1,.39,1.37L16.42,12a2.09,2.09,0,0,1-2,1.8Z"/><path class="cls-2" d="M9.69,9.24a.64.64,0,0,1-.23-.05.5.5,0,0,1-.19-.13h0l-3-3a.6.6,0,0,1,.86-.85l2,2V2.06a.61.61,0,0,1,1.21,0V8.63a.59.59,0,0,1-.05.23.53.53,0,0,1-.13.2h0a.57.57,0,0,1-.18.12.65.65,0,0,1-.2,0Z"/><path class="cls-2" d="M11.26,7.06a.6.6,0,0,1,0-.85h0l1-1a.6.6,0,0,1,.86.85l-1,1a.6.6,0,0,1-.86,0h0Z"/></g></g></svg>