<svg xmlns="http://www.w3.org/2000/svg" viewBox="0 0 18.31 19"><defs><style>.cls-1{fill:none;}.cls-2{fill:#fff;}</style></defs><title>Asset 99</title><g id="Layer_2" data-name="Layer 2"><g id="Layer_1-2" data-name="Layer 1"><rect class="cls-1" width="18.31" height="19"/><path id="Delete-7" class="cls-2" d="M9.33,18.5a.66.66,0,0,1-.64-.68.67.67,0,0,1,.64-.64h0c1.36,0,1.85,0,3.22,0A1.34,1.34,0,0,0,14,15.91a.57.57,0,0,0,0-.13c.27-2.52.75-8.55.75-8.62a.64.64,0,0,1,.67-.61.64.64,0,0,1,.61.67v0c0,.06-.48,6.11-.76,8.65a2.63,2.63,0,0,1-2.7,2.55c-1.15,0-1.44,0-2.59,0Zm-3.66,0A2.62,2.62,0,0,1,3,15.93c-.28-2.56-.75-8.6-.76-8.66a.66.66,0,0,1,.59-.71.65.65,0,0,1,.69.6c0,.06.48,6.08.76,8.62a1.32,1.32,0,0,0,1.28,1.37h.1a.65.65,0,0,1,.62.7.67.67,0,0,1-.63.62ZM1.7,5a.65.65,0,0,1-.64-.68.66.66,0,0,1,.64-.63H4.57A.81.81,0,0,0,5.36,3l.22-1.1A1.77,1.77,0,0,1,7.29.5H11a1.79,1.79,0,0,1,1.71,1.34.67.67,0,0,1-.45.81.63.63,0,0,1-.79-.45h0A.48.48,0,0,0,11,1.82H7.29a.47.47,0,0,0-.46.37L6.62,3.24a2.77,2.77,0,0,1-.12.41H16.61a.66.66,0,0,1,0,1.31Z"/></g></g></svg>