<svg xmlns="http://www.w3.org/2000/svg" viewBox="0 0 18.31 19"><defs><style>.cls-1{fill:none;}.cls-2{fill:#04999a;fill-rule:evenodd;}</style></defs><title>assetAsset 63</title><g id="Layer_2" data-name="Layer 2"><g id="Layer_1-2" data-name="Layer 1"><rect class="cls-1" width="18.31" height="19"/><g id="graph1"><path class="cls-2" d="M4.58,11.68a.61.61,0,0,0,.85,0L8,9.17l2.52,2.5a.53.53,0,0,0,.53.17.6.6,0,0,0,.33-.16h0L15.94,9a.72.72,0,0,0,.27-.89h0a.55.55,0,0,0-.79-.26L11,10.45,8.39,7.91a.62.62,0,0,0-.85,0l-3,2.93a.6.6,0,0,0,0,.84Zm11.09,3.74H3.23V3A.6.6,0,0,0,2,3V16a.6.6,0,0,0,.59.59h13a.6.6,0,0,0,0-1.19Z"/></g></g></g></svg>