<svg xmlns="http://www.w3.org/2000/svg" viewBox="0 0 18.31 19"><defs><style>.cls-1{fill:none;}.cls-2{fill:#04999a;}</style></defs><title>assetAsset 60</title><g id="Layer_2" data-name="Layer 2"><g id="Layer_1-2" data-name="Layer 1"><rect class="cls-1" width="18.31" height="19"/><path id="Logout-7" class="cls-2" d="M4,18.2a3.92,3.92,0,0,1-4-3.87.68.68,0,0,1,.69-.67h0a.67.67,0,0,1,.68.67h0A2.57,2.57,0,0,0,4,16.86H8.31a2.55,2.55,0,0,0,2.58-2.52v-.82a.69.69,0,0,1,1.38,0v.82a3.92,3.92,0,0,1-4,3.86Zm10.57-5.7a.66.66,0,0,1,0-.93h0L16,10.17h-9a.67.67,0,0,1,0-1.34H17.62A.67.67,0,0,1,18.11,10L15.5,12.51a.7.7,0,0,1-1,0ZM0,11.28V4.66A3.92,3.92,0,0,1,4,.8H8.3a3.93,3.93,0,0,1,4,3.87v.81a.69.69,0,0,1-1.38,0V4.67A2.56,2.56,0,0,0,8.3,2.14H4A2.56,2.56,0,0,0,1.37,4.66v6.62A.67.67,0,0,1,.69,12,.67.67,0,0,1,0,11.28Zm15.19-3.2-.66-.63a.66.66,0,0,1,0-.93v0a.69.69,0,0,1,1,0l.66.63a.66.66,0,0,1,0,.93v0a.7.7,0,0,1-1,0Z"/></g></g></svg>