<svg xmlns="http://www.w3.org/2000/svg" viewBox="0 0 10.13 10.13"><defs><style>.cls-1{fill:#04999a;}.cls-2{fill:#fff;}</style></defs><title>assetAsset 77</title><g id="Layer_2" data-name="Layer 2"><g id="Layer_1-2" data-name="Layer 1"><circle class="cls-1" cx="5.06" cy="5.06" r="5.06"/><polygon class="cls-2" points="5.57 4.19 5.87 4.87 5.88 4.87 6.1 4.78 5.79 4.07 6.12 4.24 6.23 4.02 5.47 3.64 5.23 4.47 5.23 4.47 5.47 4.54 5.57 4.19"/><path class="cls-2" d="M7.68,5.36h0a.18.18,0,0,0-.11-.1.19.19,0,0,0-.15,0l-2.09.92A.86.86,0,0,0,4.69,6L3.37,2.75,2.7,2.49a.19.19,0,0,0-.15,0,.2.2,0,0,0-.11.11.19.19,0,0,0,.11.25l.52.21,1.25,3a.85.85,0,0,0-.39.71.81.81,0,0,0,.26.6.8.8,0,0,0,.58.24h0a.85.85,0,0,0,.83-.84.77.77,0,0,0-.06-.3l2-.89A.2.2,0,0,0,7.68,5.36ZM5.22,6.81a.45.45,0,0,1-.45.45.41.41,0,0,1-.32-.15.42.42,0,0,1-.12-.34.45.45,0,0,1,.41-.41h0a.45.45,0,0,1,.31.12A.47.47,0,0,1,5.22,6.81Z"/><path class="cls-2" d="M5,5.6H5a.35.35,0,0,0,.22.21h.12a.26.26,0,0,0,.14,0L7,5.11a.37.37,0,0,0,.19-.48L6.52,3a.32.32,0,0,0-.41-.16l-1.63.71A.36.36,0,0,0,4.3,4ZM4.61,3.83l1.62-.7.71,1.62a.05.05,0,0,1,0,.07l-1.57.69a.06.06,0,0,1-.07,0L4.58,3.9A.05.05,0,0,1,4.61,3.83Z"/></g></g></svg>