<svg xmlns="http://www.w3.org/2000/svg" viewBox="0 0 21.91 21.91"><defs><style>.cls-1{fill:#fff;}.cls-2{fill:#04999a;}</style></defs><title>assetAsset 82</title><g id="Layer_2" data-name="Layer 2"><g id="Layer_1-2" data-name="Layer 1"><circle class="cls-1" cx="10.96" cy="10.96" r="10.96"/><polygon class="cls-2" points="11.99 9.17 12.61 10.56 12.61 10.57 13.06 10.37 12.43 8.94 13.11 9.28 13.33 8.83 11.79 8.07 11.3 9.75 11.3 9.76 11.78 9.9 11.99 9.17"/><path class="cls-2" d="M16.28,11.57h0a.4.4,0,0,0-.53-.21L11.5,13.23a1.68,1.68,0,0,0-1.29-.43L7.52,6.26,6.15,5.73a.42.42,0,0,0-.31,0A.38.38,0,0,0,5.63,6a.4.4,0,0,0,.23.52l1,.41,2.54,6.18a1.73,1.73,0,0,0-.79,1.46,1.71,1.71,0,0,0,.52,1.21,1.7,1.7,0,0,0,1.19.48h0A1.71,1.71,0,0,0,12,13.9l4.1-1.81A.4.4,0,0,0,16.28,11.57Zm-5,2.93a.91.91,0,0,1-1.58.62.91.91,0,0,1,.6-1.52h.07a.9.9,0,0,1,.62.25A.92.92,0,0,1,11.28,14.5Z"/><path class="cls-2" d="M10.79,12.06h0a.73.73,0,0,0,.45.41l.24,0a.7.7,0,0,0,.29-.06L15,11.05a.75.75,0,0,0,.39-1L13.92,6.76a.64.64,0,0,0-.83-.32L9.78,7.87a.74.74,0,0,0-.38,1ZM10,8.46,13.34,7l1.43,3.3a.1.1,0,0,1,0,.13l-3.21,1.4a.12.12,0,0,1-.14-.06L10,8.6A.1.1,0,0,1,10,8.46Z"/></g></g></svg>