<svg xmlns="http://www.w3.org/2000/svg" viewBox="0 0 18.31 19"><defs><style>.cls-1{fill:none;}.cls-2{fill:#04999a;}</style></defs><title>assetAsset 64</title><g id="Layer_2" data-name="Layer 2"><g id="Layer_1-2" data-name="Layer 1"><rect class="cls-1" width="18.31" height="19"/><path class="cls-2" d="M6.64,11.35a2.21,2.21,0,0,1,.59.08l2.18.66-.15.05a9,9,0,0,1-1.18.06c-.28,0-.61,0-.89,0H7.13a.56.56,0,0,0-.57.54.56.56,0,0,0,.14.41.58.58,0,0,0,.4.19c.18,0,.54,0,1,0a10,10,0,0,0,1.37-.08,1.47,1.47,0,0,0,1.25-1.62.57.57,0,0,0-.4-.5l-2.73-.82a3.1,3.1,0,0,0-.92-.13,5,5,0,0,0-2.12.52L1.78,12.37a.58.58,0,0,0-.2.79.58.58,0,0,0,.79.2l2.7-1.62A3.74,3.74,0,0,1,6.64,11.35Z"/><path class="cls-2" d="M16.74,11a1.61,1.61,0,0,0-1.39-.82,2,2,0,0,0-.76.17c-.81.36-2.37,1.1-2.82,1.32l-.17.08a.59.59,0,0,0-.29.33.61.61,0,0,0,0,.44.58.58,0,0,0,.78.26l.1-.05c1.4-.67,2.33-1.11,2.85-1.34l.09,0-5.3,4.08a1.51,1.51,0,0,1-1.1.27l-4.5,0a.61.61,0,0,0-.45.12l-1.14,1a.61.61,0,0,0-.21.39.6.6,0,0,0,.14.42.58.58,0,0,0,.44.21.54.54,0,0,0,.36-.14L4.33,17l4.24-.09a2.68,2.68,0,0,0,2-.47l6-4.63A.59.59,0,0,0,16.74,11Z"/><path class="cls-2" d="M3.06,9.26a.41.41,0,0,0,.16,0,12.91,12.91,0,0,1,3.23-.69,7.39,7.39,0,0,1,2.41.55,8.77,8.77,0,0,0,3,.64h0a9.32,9.32,0,0,0,3-.5.5.5,0,0,0,.32-.47V2.34a.57.57,0,0,0,0-.18.49.49,0,0,0-.46-.31.47.47,0,0,0-.17,0,8.47,8.47,0,0,1-2.69.44h0A7.88,7.88,0,0,1,9.2,1.74a8.07,8.07,0,0,0-2.73-.61,13.93,13.93,0,0,0-3.58.74.5.5,0,0,0-.33.47V8.76a.41.41,0,0,0,0,.16A.5.5,0,0,0,3.06,9.26Zm.49-6V2.7l.23-.06L4,2.59A1.3,1.3,0,0,1,3.55,3.25ZM4,8l-.41.12V7.67A.53.53,0,0,1,4,8ZM14.21,7a1.55,1.55,0,0,0-1.43,1.53.76.76,0,0,1,0,.15c-.32,0-.64.05-1,.05a7.93,7.93,0,0,1-2.63-.58,8.18,8.18,0,0,0-2.74-.61,8.66,8.66,0,0,0-1.52.19A1.52,1.52,0,0,0,3.55,6.68V4A1.52,1.52,0,0,0,4.8,2.54c0-.06,0-.12,0-.18a8.72,8.72,0,0,1,1.68-.24,7.45,7.45,0,0,1,2.41.55,8.55,8.55,0,0,0,2.94.64c.32,0,.63,0,.94-.05a1.54,1.54,0,0,0,1.45,1.19Zm0,1V8.4a3.17,3.17,0,0,1-.44.12A.54.54,0,0,1,14.21,8Zm-.46-4.89L14.21,3v.45A.55.55,0,0,1,13.75,3.12Z"/><path class="cls-2" d="M9.07,3.22a2.72,2.72,0,0,0-.49-.05A1.74,1.74,0,0,0,6.77,5,2.86,2.86,0,0,0,9,7.57a2.72,2.72,0,0,0,.49,0,1.74,1.74,0,0,0,1.81-1.78A2.86,2.86,0,0,0,9.07,3.22Zm0,3.59A1.92,1.92,0,0,1,7.55,5.05,1.08,1.08,0,0,1,8.69,3.94L9,4a1.94,1.94,0,0,1,1.52,1.77A1.11,1.11,0,0,1,9.07,6.81Z"/></g></g></svg>