<svg xmlns="http://www.w3.org/2000/svg" viewBox="0 0 18.31 19"><defs><style>.cls-1{fill:none;}.cls-2{fill:#fff;}</style></defs><title>Asset 91</title><g id="Layer_2" data-name="Layer 2"><g id="Layer_1-2" data-name="Layer 1"><rect class="cls-1" width="18.31" height="19"/><path id="Close_Square-6" data-name="Close Square-6" class="cls-2" d="M5.78,18.5A5.22,5.22,0,0,1,.15,12.88V6.13A5.22,5.22,0,0,1,5.78.5h6.75a5.22,5.22,0,0,1,5.62,5.63V8.44a.67.67,0,0,1-.68.68h0v0a.68.68,0,0,1-.69-.68V6.13c0-2.75-1.51-4.25-4.25-4.25H5.78C3,1.88,1.53,3.39,1.53,6.13v6.75c0,2.73,1.51,4.24,4.25,4.24h6.75c2.74,0,4.24-1.51,4.24-4.24a.69.69,0,1,1,1.38,0,5.21,5.21,0,0,1-5.62,5.62ZM12,12.13v0a.7.7,0,0,1-1,0l-.61-.62a.69.69,0,0,1,1-.94h0l.62.62A.69.69,0,0,1,12,12.13Zm-.1-4.46,0,0L7.55,12a.73.73,0,0,1-1,0,.68.68,0,0,1,0-1h0L8.23,9.37,6.7,7.84a.7.7,0,0,1,0-1,.61.61,0,0,1,.16-.12.68.68,0,0,1,.83.11L9.22,8.37l1.66-1.65a.69.69,0,0,1,1,0h0v0a.69.69,0,0,1,0,1Z"/></g></g></svg>