<svg xmlns="http://www.w3.org/2000/svg" viewBox="0 0 18.31 19"><defs><style>.cls-1{fill:none;}.cls-2{fill:#04999a;}</style></defs><title>Asset 93</title><g id="Layer_2" data-name="Layer 2"><g id="Layer_1-2" data-name="Layer 1"><rect class="cls-1" width="18.31" height="19"/><path id="Paper-7" class="cls-2" d="M5.62,18.5A4.14,4.14,0,0,1,1.5,14.37V12a.68.68,0,1,1,1.35,0v2.27a2.79,2.79,0,0,0,2.72,2.86h7.22a2.84,2.84,0,0,0,2.67-2.86v-8L12,2.63V3.82a1.65,1.65,0,0,0,1.63,1.65.68.68,0,0,1,0,1.36h0a3,3,0,0,1-3-3V1.87H5.62a2.78,2.78,0,0,0-2.77,2.7V8.31a.68.68,0,1,1-1.35,0V4.57A4.15,4.15,0,0,1,5.62.51h6a.69.69,0,0,1,.49.21L16.62,5.5A.69.69,0,0,1,16.8,6v8.31a4.17,4.17,0,0,1-4,4.22Zm.72-5a.68.68,0,0,1,0-1.36h4.84a.68.68,0,0,1,0,1.36ZM6.34,9a.68.68,0,0,1,0-1.36h3A.68.68,0,0,1,9.35,9Z"/></g></g></svg>