<svg xmlns="http://www.w3.org/2000/svg" viewBox="0 0 18.31 19"><defs><style>.cls-1{fill:none;}.cls-2{fill:#fff;}</style></defs><title>Asset 101</title><g id="Layer_2" data-name="Layer 2"><g id="Layer_1-2" data-name="Layer 1"><rect class="cls-1" width="18.31" height="19"/><path class="cls-2" d="M17.51,6.67H13.65V4.1A3.6,3.6,0,0,0,10.05.5H8.26A3.61,3.61,0,0,0,4.65,4.1V6.67H.8A.65.65,0,1,0,.8,8H4.65V9.24a.65.65,0,0,0,.65.65H13a.64.64,0,0,0,.64-.65V8h3.22v7.33H13.65v-.65A.64.64,0,0,0,13,14H5.3a.65.65,0,0,0-.65.64v.65H1.44V9.89a.65.65,0,1,0-1.29,0v6a.65.65,0,0,0,.65.64H4.65v1.29a.65.65,0,0,0,.65.64H13a.64.64,0,0,0,.64-.64V16.57h3.86a.64.64,0,0,0,.64-.64V7.31A.64.64,0,0,0,17.51,6.67ZM12.37,8.6H5.94V4.3A2.51,2.51,0,0,1,8.45,1.79H9.86A2.51,2.51,0,0,1,12.37,4.3Zm0,8.61H5.94V15.29h6.43Z"/></g></g></svg>