<svg xmlns="http://www.w3.org/2000/svg" viewBox="0 0 18.31 19"><defs><style>.cls-1{fill:none;}.cls-2{fill:#04999a;}</style></defs><title>assetAsset 62</title><g id="Layer_2" data-name="Layer 2"><g id="Layer_1-2" data-name="Layer 1"><rect class="cls-1" width="18.31" height="19"/><path id="Graph-7" class="cls-2" d="M4.51,16.77A7,7,0,0,1,.74,11.35a4.46,4.46,0,0,1-.05-.82A7,7,0,0,1,6.3,3.67a.68.68,0,0,1,.81.51A.68.68,0,0,1,6.6,5h0a5.67,5.67,0,0,0-4.52,5.56,3.18,3.18,0,0,0,0,.62A5.7,5.7,0,0,0,13.22,12a.69.69,0,0,1,.83-.47.73.73,0,0,1,.42.31.65.65,0,0,1,.07.51,7.06,7.06,0,0,1-10,4.39Zm6.27-7.2A1.36,1.36,0,0,1,9.43,8.33L9.06,2.79a1.22,1.22,0,0,1,.35-.94,1.32,1.32,0,0,1,.94-.39h0a7.55,7.55,0,0,1,7.24,6.29h0v.12a1.27,1.27,0,0,1-.31.91,1.25,1.25,0,0,1-.87.42l-5.57.37Zm0-1.33,5.5-.36A6.2,6.2,0,0,0,10.41,2.8Z"/></g></g></svg>