<svg xmlns="http://www.w3.org/2000/svg" viewBox="0 0 11.16 11.16"><defs><style>.cls-1{fill:none;}.cls-2{fill:#04999a;}</style></defs><title>assetAsset 70</title><g id="Layer_2" data-name="Layer 2"><g id="Layer_1-2" data-name="Layer 1"><rect class="cls-1" width="11.16" height="11.16"/><path class="cls-2" d="M5.6,1.17h0A3.75,3.75,0,0,0,1.83,4.93a4.67,4.67,0,0,0,.95,2.68A10.78,10.78,0,0,0,5.3,10h0a.33.33,0,0,0,.36-.55A10,10,0,0,1,3.31,7.21,3.93,3.93,0,0,1,2.49,4.9,3.1,3.1,0,0,1,5.58,1.82h0A3.11,3.11,0,0,1,8.68,5,4.78,4.78,0,0,1,7.2,8a8.36,8.36,0,0,1-.61.58.33.33,0,0,0,.42.5,8,8,0,0,0,.67-.63A5.34,5.34,0,0,0,9.34,5v0A3.75,3.75,0,0,0,5.6,1.17Z"/><path class="cls-2" d="M5.58,5.74A.76.76,0,0,1,4.81,5a.34.34,0,0,0-.32-.32A.34.34,0,0,0,4.15,5h0A1.43,1.43,0,1,0,5.58,3.54h0a.33.33,0,0,0-.33.33.33.33,0,0,0,.33.33.77.77,0,0,1,0,1.54Z"/></g></g></svg>