<svg xmlns="http://www.w3.org/2000/svg" viewBox="0 0 11.16 11.16"><defs><style>.cls-1{fill:none;}.cls-2{fill:#575756;}</style></defs><title>assetAsset 86</title><g id="Layer_2" data-name="Layer 2"><g id="Layer_1-2" data-name="Layer 1"><rect class="cls-1" width="11.16" height="11.16"/><path id="Lock-7" class="cls-2" d="M7.73,11.16H5.83a.42.42,0,1,1,0-.83h1.9a1.72,1.72,0,0,0,1.73-1.7.13.13,0,0,1,0-.06V6.23A1.7,1.7,0,0,0,7.75,4.54H3.41A1.71,1.71,0,0,0,1.69,6.23V8.57a.13.13,0,0,0,0,.06,1.72,1.72,0,0,0,1.72,1.7.42.42,0,1,1,0,.83h0a2.55,2.55,0,0,1-1.83-.74A2.51,2.51,0,0,1,.84,8.63V6.23A2.54,2.54,0,0,1,2.57,3.85V3a3,3,0,0,1,3-3h0a3,3,0,0,1,3,3v.89a2.55,2.55,0,0,1,1.73,2.38v2.4a2.56,2.56,0,0,1-2.58,2.53ZM3.42,3V3.7H7.74V3A2.13,2.13,0,0,0,5.59.84h0A2.14,2.14,0,0,0,3.42,3Zm1.74,5.1V6.81a.43.43,0,1,1,.85,0V8.05a.43.43,0,0,1-.85,0Z"/></g></g></svg>