<svg xmlns="http://www.w3.org/2000/svg" viewBox="0 0 113.12 34.26"><defs><style>.cls-1{fill:#1c1d1e;}.cls-2{fill:#04999a;}.cls-3{fill:#1d1d1b;}</style></defs><title>assetAsset 59</title><g id="Layer_2" data-name="Layer 2"><g id="Layer_1-2" data-name="Layer 1"><path class="cls-1" d="M0,2.61H1.51L6.72,7.34l5.19-4.73h1.51V15.37H10.06V8.82l-3.34,3-3.35-3v6.53H0Z"/><path class="cls-1" d="M39.2,2.61h5.63A3.85,3.85,0,0,1,48.61,6.4a3.71,3.71,0,0,1-.82,2.3,3.81,3.81,0,0,1,1.45,2.93,3.8,3.8,0,0,1-3.74,3.74H39.2Zm5,5a1.11,1.11,0,0,0,0-2.22H42.55V7.6Zm.63,5a1.1,1.1,0,0,0,1.1-1.1,1.13,1.13,0,0,0-1.1-1.11H42.55v2.21Z"/><path class="cls-1" d="M53.13,2.61h3.36V15.37H53.13Z"/><path class="cls-1" d="M61.06,2.61h3.35V12H69v3.37H61.06Z"/><path class="cls-2" d="M26.31,0a9.09,9.09,0,0,0-9,9.17,1.12,1.12,0,1,0,2.24,0,6.75,6.75,0,1,1,13.5,0c0,3.08-4.16,8-6.75,10.5C24.57,18,21.65,15,20.34,12a1.11,1.11,0,1,0-2,.89,20.54,20.54,0,0,0,2.45,4,35,35,0,0,0,3,3.43c.4.41.78.77,1.18,1.15l.14.14a1.93,1.93,0,0,0,1.24.71,1.82,1.82,0,0,0,1.26-.7l.13-.11c.66-.64,1.33-1.34,2-2.07.95-1.06,1.77-2.06,2.51-3.07a21.9,21.9,0,0,0,2.16-3.57,8.47,8.47,0,0,0,.92-3.58A9.09,9.09,0,0,0,26.31,0Z"/><path class="cls-2" d="M26.3,13.53A4.54,4.54,0,1,1,30.84,9,4.52,4.52,0,0,1,26.3,13.53Zm0-6.7A2.17,2.17,0,1,0,28.47,9,2.16,2.16,0,0,0,26.3,6.83Z"/><path class="cls-2" d="M72.59.85h2.12L72.93,5.48H71.29Z"/><path class="cls-1" d="M62.26,34.25c-1.66,0-3.34,0-5-.14a.87.87,0,0,1,.11-1.74c1.64.1,3.29.15,4.9.14h.27a.87.87,0,1,1,0,1.74h-.27ZM73,33.36a.86.86,0,0,1-.86-.73.87.87,0,0,1,.72-1c1.7-.28,3.4-.63,5.06-1a.87.87,0,0,1,.41,1.7c-1.69.42-3.44.78-5.19,1.06Zm-26-.63-.18,0C45,32.37,43.31,32,41.6,31.5a.88.88,0,0,1,.46-1.69c1.67.45,3.36.86,5,1.19a.87.87,0,0,1-.17,1.73ZM88,29a.85.85,0,0,1-.81-.53.87.87,0,0,1,.46-1.14c1.57-.67,3.15-1.41,4.67-2.21a.87.87,0,1,1,.81,1.55c-1.57.82-3.18,1.58-4.8,2.27A.92.92,0,0,1,88,29Zm-56.07-.86a1,1,0,0,1-.34-.06,52.87,52.87,0,0,1-4.84-2.28.88.88,0,0,1-.33-1.19.87.87,0,0,1,1.19-.33s1.71.95,4.65,2.19a.87.87,0,0,1-.33,1.67Zm69.69-6.88a.87.87,0,0,1-.52-1.58c1.38-1,2.76-2.07,4.08-3.17a.87.87,0,0,1,1.12,1.34c-1.36,1.13-2.76,2.22-4.18,3.25A.85.85,0,0,1,101.62,21.26Z"/><path class="cls-3" d="M77,2.61h3.36V15.43H77Z"/><path class="cls-3" d="M84.94,2.61h1.37l6.06,6.05V2.61h3.37V15.43H94.36l-6-6.07v6.07H84.94Z"/><path class="cls-2" d="M106.71,15.43A6.41,6.41,0,1,1,113.12,9,6.38,6.38,0,0,1,106.71,15.43Zm0-9.47A3.06,3.06,0,1,0,109.77,9,3,3,0,0,0,106.71,6Z"/></g></g></svg>