<svg xmlns="http://www.w3.org/2000/svg" viewBox="0 0 18.31 19"><defs><style>.cls-1{fill:none;}.cls-2{fill:#fff;}</style></defs><title>Asset 105</title><g id="Layer_2" data-name="Layer 2"><g id="Layer_1-2" data-name="Layer 1"><rect class="cls-1" width="18.31" height="19"/><path id="Chart-7" class="cls-2" d="M3.69,5.2a.78.78,0,0,1,.79-.74h6.4a.77.77,0,0,1,.74.78h0a.75.75,0,0,1-.79.74H4.43a.76.76,0,0,1-.74-.76Zm.78,3.57h9.38a.77.77,0,1,1,0,1.53H4.47a.77.77,0,0,1,0-1.53Zm0,4.24h3a.77.77,0,1,1,0,1.53h-3a.77.77,0,0,1,0-1.53Zm9.41-4.24h0Z"/></g></g></svg>