<svg xmlns="http://www.w3.org/2000/svg" viewBox="0 0 18.31 19"><defs><style>.cls-1{fill:none;}.cls-2{fill:#fff;}</style></defs><title>Asset 98</title><g id="Layer_2" data-name="Layer 2"><g id="Layer_1-2" data-name="Layer 1"><rect class="cls-1" width="18.31" height="19"/><path id="Edit-7" class="cls-2" d="M10.76,18.5a.8.8,0,0,1-.76-.81.79.79,0,0,1,.76-.76h6.62a.79.79,0,0,1,0,1.57Zm-9,0A.77.77,0,0,1,1,17.89L.23,14.62a2.32,2.32,0,0,1,.44-2L1.8,11.19a.77.77,0,0,1,1.08-.14h0A.78.78,0,0,1,3,12.16L1.89,13.62a.79.79,0,0,0-.14.65l.61,2.65,2.7,0a.73.73,0,0,0,.59-.3l8.6-11.09a1,1,0,0,0,.23-.91,1.69,1.69,0,0,0-.65-.94L12.38,2.49a1.25,1.25,0,0,0-1.77-.08l-.12.11L9.36,4l1.8,1.46a.78.78,0,0,1,.12,1.1.77.77,0,0,1-1.08.14h0L8.4,5.22,5.45,9a.77.77,0,0,1-1.08.15h0a.81.81,0,0,1-.13-1.11l5.05-6.5a2.78,2.78,0,0,1,3.9-.45l.17.15,1.44,1.14A3.24,3.24,0,0,1,16,4.25a2.62,2.62,0,0,1-.52,2.21L6.86,17.56a2.3,2.3,0,0,1-1.8.9l-3.31,0Z"/></g></g></svg>