<svg xmlns="http://www.w3.org/2000/svg" viewBox="0 0 10.13 10.13"><defs><style>.cls-1{fill:#04999a;}.cls-2{fill:#fff;}</style></defs><title>assetAsset 80</title><g id="Layer_2" data-name="Layer 2"><g id="Layer_1-2" data-name="Layer 1"><circle class="cls-1" cx="5.06" cy="5.06" r="5.06"/><path id="Close_Square-6" data-name="Close Square-6" class="cls-2" d="M4.09,7.65A1.5,1.5,0,0,1,2.47,6V4.09A1.5,1.5,0,0,1,4.09,2.47H6A1.5,1.5,0,0,1,7.65,4.09v.67a.19.19,0,0,1-.2.19h0a.21.21,0,0,1-.2-.2V4.09A1.1,1.1,0,0,0,6,2.87H4.09A1.11,1.11,0,0,0,2.87,4.09V6A1.1,1.1,0,0,0,4.09,7.25H6A1.1,1.1,0,0,0,7.25,6a.2.2,0,0,1,.4,0A1.5,1.5,0,0,1,6,7.65ZM4,5H4a.21.21,0,0,1,.21-.19h.25a.2.2,0,0,1,0,.4H4.18A.21.21,0,0,1,4,5Zm.93.89V4.16a.2.2,0,0,1,.2-.2.19.19,0,0,1,.2.19h0v.69h.62a.2.2,0,0,1,.2.2s0,0,0,.06a.2.2,0,0,1-.19.14H5.32v.68a.2.2,0,0,1-.2.2h0a.2.2,0,0,1-.2-.19Z"/></g></g></svg>