<svg xmlns="http://www.w3.org/2000/svg" viewBox="0 0 18.31 19"><defs><style>.cls-1{fill:none;}.cls-2{fill:#fff;}</style></defs><title>Asset 104</title><g id="Layer_2" data-name="Layer 2"><g id="Layer_1-2" data-name="Layer 1"><rect class="cls-1" width="18.31" height="19"/><path id="Setting-7" class="cls-2" d="M6.16,16.13A.83.83,0,0,0,6,15.65a1,1,0,0,0-1.34-.36,2.46,2.46,0,0,1-3.24-.85L.9,13.5a2.34,2.34,0,0,1,.88-3.16A1,1,0,0,0,2.14,10a.93.93,0,0,0,.16-.76,1,1,0,0,0-.48-.63A2.33,2.33,0,0,1,.94,5.44a.71.71,0,0,1,.45-.29.7.7,0,0,1,.53.1.66.66,0,0,1,.2.92.94.94,0,0,0,.34,1.29h0a2.33,2.33,0,0,1,.82,3.19,2.36,2.36,0,0,1-.85.84.94.94,0,0,0-.38,1.28l0,0,.56.94a.92.92,0,0,0,.59.45,1,1,0,0,0,.75-.1,2.35,2.35,0,0,1,1.19-.31,2.4,2.4,0,0,1,2.43,2.37h0a1,1,0,0,0,1,1h0a.71.71,0,0,1,.61.35.64.64,0,0,1,0,.68.71.71,0,0,1-.61.35A2.41,2.41,0,0,1,6.16,16.13Zm4.53.07a2.34,2.34,0,0,1,1.21-2,2.46,2.46,0,0,1,2.38,0,1,1,0,0,0,.75.1,1,1,0,0,0,.6-.45l.55-.94a1,1,0,0,0,.1-.73,1,1,0,0,0-.46-.58,2.28,2.28,0,0,1-.88-.94,2.34,2.34,0,0,1,.88-3.16.73.73,0,0,1,.95.26.69.69,0,0,1-.23.94h0a1.1,1.1,0,0,0-.36.35.93.93,0,0,0-.1.73.91.91,0,0,0,.45.58,2.34,2.34,0,0,1,.87,3.2l0,0-.55.95a2.47,2.47,0,0,1-3.24.85,1,1,0,0,0-1,0,1,1,0,0,0-.49.84.71.71,0,0,1-.8.61.72.72,0,0,1-.62-.61ZM7,11.61a2.93,2.93,0,0,1-.67-3.24A3.06,3.06,0,0,1,9.15,6.53h0a3.09,3.09,0,0,1,2.14.87,2.92,2.92,0,0,1,.89,2.1,3,3,0,0,1-1.87,2.75A3.1,3.1,0,0,1,7,11.61ZM7.54,9.5A1.62,1.62,0,1,0,9.19,7.92h0A1.6,1.6,0,0,0,7.54,9.5Zm8.1-4.25a1,1,0,0,0-1.35-.35,2.48,2.48,0,0,1-2.38,0,2.35,2.35,0,0,1-1.22-2,1,1,0,0,0-.28-.7,1,1,0,0,0-.7-.29H8.6a1,1,0,0,0-.71.29,1,1,0,0,0-.28.7,2.31,2.31,0,0,1-1.21,2A2.43,2.43,0,0,1,4,4.87l0,0a.68.68,0,0,1-.24-.93l0,0a.72.72,0,0,1,1-.22,1.05,1.05,0,0,0,1.19-.12,1,1,0,0,0,.32-.67A2.4,2.4,0,0,1,8.6.5H9.71a2.41,2.41,0,0,1,2.43,2.37h0a.91.91,0,0,0,.13.48,1,1,0,0,0,.59.45,1,1,0,0,0,.75-.1,2.46,2.46,0,0,1,3.24.85.69.69,0,0,1-.26.94.63.63,0,0,1-.35.09.69.69,0,0,1-.61-.33Z"/></g></g></svg>