<svg xmlns="http://www.w3.org/2000/svg" viewBox="0 0 10.13 10.13"><defs><style>.cls-1{fill:#04999a;}.cls-2{fill:#fff;}</style></defs><title>assetAsset 79</title><g id="Layer_2" data-name="Layer 2"><g id="Layer_1-2" data-name="Layer 1"><circle class="cls-1" cx="5.06" cy="5.06" r="5.06"/><path class="cls-2" d="M6.77,2.47l-.1,0a3.52,3.52,0,0,0-.56.21h0a4,4,0,0,0-1.23.93,1.12,1.12,0,0,0-.31,0,4.73,4.73,0,0,0-.9.25h0s-.23.12-.61.29a.45.45,0,0,0-.22.25s0,.09,0,.14-.28.87-.41,1.26A.36.36,0,0,1,2.27,6L2,6.11a.3.3,0,0,0-.14.22A.28.28,0,0,0,2,6.58l.82,1.07.13-.08a6.94,6.94,0,0,1,.62-.34,2.83,2.83,0,0,0,1.1-.54,1.79,1.79,0,0,0,.22-.28L5.33,7l.12-.16S6.1,6,6.49,5.5A8.82,8.82,0,0,1,8.08,4.32l.16-.1Zm-.11.38.06.07a.53.53,0,0,1-.22,0ZM4.41,6.44a2.57,2.57,0,0,1-1,.47,3.47,3.47,0,0,0-.61.31l-.64-.83.25-.17A1.16,1.16,0,0,0,2.67,6V6s.37-1.14.42-1.3a.56.56,0,0,1,0-.12.15.15,0,0,1,.05-.06c.51-.24.62-.3.65-.32A5.82,5.82,0,0,1,4.61,4h0L4,5V5a.34.34,0,0,0,.22.37.58.58,0,0,0,.54-.06l.15-.12c.14-.12.41-.36.59-.35a.19.19,0,0,1,.1,0,.28.28,0,0,1,0,.23s-.16.15-.25.23a3.52,3.52,0,0,0-.32.29A3.5,3.5,0,0,0,4.71,6,3.43,3.43,0,0,1,4.41,6.44ZM5.49,4.2A.43.43,0,0,1,5.8,4a.45.45,0,0,1,.42.48.51.51,0,0,1-.16.38A.46.46,0,0,1,5.89,5a.49.49,0,0,0,0-.24.4.4,0,0,0-.37-.21.06.06,0,0,0-.06,0A.46.46,0,0,1,5.49,4.2ZM5.31,6.46l-.1-.12a.66.66,0,0,1,.23,0Zm.92-1.17-.63.8a1,1,0,0,0-.54.07l0,0,.17-.26.28-.25a1.84,1.84,0,0,0,.32-.31.2.2,0,0,0,0-.08.65.65,0,0,0,.38-.16.75.75,0,0,0,.23-.54.67.67,0,0,0-.64-.7.59.59,0,0,0-.48.27.66.66,0,0,0-.12.5A2.21,2.21,0,0,0,4.65,5L4.54,5a.22.22,0,0,1-.24,0h0l.77-1.15,0,0A3.61,3.61,0,0,1,6.21,3a1,1,0,0,0,.47.12.75.75,0,0,0,.21,0l.62.74a.73.73,0,0,0-.16.53A6.37,6.37,0,0,0,6.23,5.29Zm1.34-1A.45.45,0,0,1,7.66,4l.08.1Z"/></g></g></svg>