<svg xmlns="http://www.w3.org/2000/svg" viewBox="0 0 18.31 19"><defs><style>.cls-1{fill:none;}.cls-2{fill:#fff;}</style></defs><title>Asset 97</title><g id="Layer_2" data-name="Layer 2"><g id="Layer_1-2" data-name="Layer 1"><rect class="cls-1" width="18.31" height="19"/><path id="Search-7" class="cls-2" d="M18.09,17.38,14.94,14.3h0l-.08-.11a.75.75,0,0,0-1,0h0a7.41,7.41,0,0,1-9.63.31A7,7,0,0,1,2.63,5.21a7.4,7.4,0,0,1,9.23-2.72,7.1,7.1,0,0,1,4,8.59.71.71,0,0,0,.16.71.75.75,0,0,0,.71.21.69.69,0,0,0,.54-.49h0a8.54,8.54,0,0,0-4.57-10.3A8.92,8.92,0,0,0,1.55,4.09,8.46,8.46,0,0,0,2.79,15.25a9,9,0,0,0,11.48.47l2.78,2.73a.75.75,0,0,0,1,0,.72.72,0,0,0,0-1h0Z"/></g></g></svg>