<svg xmlns="http://www.w3.org/2000/svg" viewBox="0 0 18.31 19"><defs><style>.cls-1{fill:none;}.cls-2{fill:#04999a;}</style></defs><title>assetAsset 65</title><g id="Layer_2" data-name="Layer 2"><g id="Layer_1-2" data-name="Layer 1"><rect class="cls-1" width="18.31" height="19"/><path class="cls-2" d="M12.2,7.34c-.25,0-.5,0-.75,0H3.55L6.89,4a.57.57,0,0,0,0-.81.61.61,0,0,0-.85,0L1.67,7.49a.57.57,0,0,0-.14.64.61.61,0,0,0,.56.37H11.9a4.23,4.23,0,0,1,2.75.88,2.62,2.62,0,0,1,1,2v4a.59.59,0,1,0,1.17,0v-4A3.71,3.71,0,0,0,15.93,9a4.75,4.75,0,0,0-2.29-1.45A5.84,5.84,0,0,0,12.2,7.34Z"/><path class="cls-2" d="M4.23,9.16a.61.61,0,0,0-.85,0l0,0a.57.57,0,0,0,0,.81L6,12.61a.61.61,0,0,0,.85,0h0v0a.56.56,0,0,0,0-.81Z"/></g></g></svg>