<svg xmlns="http://www.w3.org/2000/svg" viewBox="0 0 22.05 19"><defs><style>.cls-1{fill:none;}.cls-2{fill:#fff;}</style></defs><title>Asset 96</title><g id="Layer_2" data-name="Layer 2"><g id="Layer_1-2" data-name="Layer 1"><rect class="cls-1" width="22.05" height="19"/><path id="Scan-7" class="cls-2" d="M1.85,6.26V4.4a3.94,3.94,0,0,1,4-3.9H7.46a.76.76,0,0,1,.76.75A.76.76,0,0,1,7.46,2H5.83A2.45,2.45,0,0,0,3.37,4.4V6.26a.76.76,0,0,1-1.52,0ZM14.63,18.5A.75.75,0,1,1,14.57,17h1.65a2.44,2.44,0,0,0,2.46-2.42V11H3.37V14.6A2.45,2.45,0,0,0,5.83,17H7.45a.74.74,0,0,1,.78.72.75.75,0,0,1-.72.77H5.83a4,4,0,0,1-4-3.9V11H.79a.75.75,0,1,1-.06-1.5H21.27a.75.75,0,0,1,.77.72.76.76,0,0,1-.72.78H20.2v3.55a3.94,3.94,0,0,1-4,3.91Zm4-12.24V4.41A2.44,2.44,0,0,0,16.22,2H14.63a.74.74,0,0,1-.76-.74h0A.75.75,0,0,1,14.63.5h1.59a3.94,3.94,0,0,1,4,3.91V6.26a.76.76,0,0,1-1.52,0Z"/><path class="cls-2" d="M7.15,5.24h0a.37.37,0,0,0-.35.39v7.73a.39.39,0,0,0,.11.3.5.5,0,0,0,.27.1.37.37,0,0,0,.36-.39V5.64A.38.38,0,0,0,7.15,5.24Z"/><path class="cls-2" d="M12.14,5.27a.38.38,0,0,0-.38.37v6.09a.38.38,0,0,0,.75,0V5.64A.38.38,0,0,0,12.14,5.27Z"/><path class="cls-2" d="M12.14,13.72a.37.37,0,0,0,.37-.37v-.11a.38.38,0,1,0-.75,0v.11A.37.37,0,0,0,12.14,13.72Z"/><path class="cls-2" d="M14.63,5.27a.38.38,0,0,0-.37.37v7.72a.38.38,0,0,0,.37.37.37.37,0,0,0,.37-.37V5.64A.37.37,0,0,0,14.63,5.27Z"/><path class="cls-2" d="M9.64,5.27a.38.38,0,0,0-.37.37v7.72a.38.38,0,0,0,.37.37.37.37,0,0,0,.37-.37V5.64A.37.37,0,0,0,9.64,5.27Z"/></g></g></svg>