<svg xmlns="http://www.w3.org/2000/svg" viewBox="0 0 11.16 11.16"><defs><style>.cls-1{fill:none;}.cls-2{fill:#04999a;}</style></defs><title>assetAsset 71</title><g id="Layer_2" data-name="Layer 2"><g id="Layer_1-2" data-name="Layer 1"><rect class="cls-1" width="11.16" height="11.16"/><path class="cls-2" d="M4,5.2A.27.27,0,0,0,3.92,5a.77.77,0,0,0-.36-.15,1.33,1.33,0,0,1-.62-.29A.52.52,0,0,1,2.79,4a.87.87,0,0,1,.35-.57,1.18,1.18,0,0,1,.73-.23.88.88,0,0,1,.66.24.6.6,0,0,1,.17.58v0H4.14a.33.33,0,0,0-.06-.28.32.32,0,0,0-.28-.11.49.49,0,0,0-.3.09A.36.36,0,0,0,3.36,4a.25.25,0,0,0,.06.22.77.77,0,0,0,.36.15,1.32,1.32,0,0,1,.64.28.53.53,0,0,1,.14.51.88.88,0,0,1-.36.58A1.31,1.31,0,0,1,3.44,6a.93.93,0,0,1-.7-.26.68.68,0,0,1-.18-.6h.55a.35.35,0,0,0,.09.33.46.46,0,0,0,.32.1.55.55,0,0,0,.32-.09A.36.36,0,0,0,4,5.2Z"/><path class="cls-2" d="M5.93,3.6a1.06,1.06,0,0,1,.34-.26,1.05,1.05,0,0,1,.44-.1.56.56,0,0,1,.36.12.51.51,0,0,1,.2.33,1.13,1.13,0,0,1,.36-.33.87.87,0,0,1,.45-.12.56.56,0,0,1,.51.28,1.09,1.09,0,0,1,.07.81L8.34,5.91H7.76l.32-1.58a.92.92,0,0,0,0-.48.32.32,0,0,0-.29-.12.46.46,0,0,0-.29.1.81.81,0,0,0-.23.28v.1l-.34,1.7H6.34l.31-1.58a.72.72,0,0,0,0-.47.3.3,0,0,0-.29-.13.52.52,0,0,0-.27.07A1,1,0,0,0,5.87,4L5.49,5.91H4.91l.52-2.62H6Z"/><path class="cls-2" d="M10.44,5.2A.27.27,0,0,0,10.37,5,.77.77,0,0,0,10,4.82a1.38,1.38,0,0,1-.62-.29A.49.49,0,0,1,9.24,4a.83.83,0,0,1,.35-.57,1.17,1.17,0,0,1,.72-.23.9.9,0,0,1,.67.24.62.62,0,0,1,.17.58v0h-.55a.37.37,0,0,0-.06-.28.34.34,0,0,0-.29-.11.48.48,0,0,0-.29.09A.36.36,0,0,0,9.81,4a.21.21,0,0,0,.06.22.77.77,0,0,0,.36.15,1.32,1.32,0,0,1,.64.28.56.56,0,0,1,.14.51.88.88,0,0,1-.36.58A1.33,1.33,0,0,1,9.89,6a.91.91,0,0,1-.7-.26A.63.63,0,0,1,9,5.1h.54a.35.35,0,0,0,.09.33.49.49,0,0,0,.32.1.53.53,0,0,0,.32-.09A.34.34,0,0,0,10.44,5.2Z"/><path class="cls-2" d="M9.77,2.71V1.8a.64.64,0,0,0-.62-.64H.62A.64.64,0,0,0,0,1.8V7.47a.63.63,0,0,0,.62.64H1.89V9.69A.31.31,0,0,0,2.1,10a.2.2,0,0,0,.1,0,.31.31,0,0,0,.25-.11L3.93,8.11H9.15a.63.63,0,0,0,.62-.64V6.4H9.15V7.47H3.81a.37.37,0,0,0-.28.1,1.58,1.58,0,0,0-.22.29l-.25.3-.38.46-.17.2v-1a.32.32,0,0,0-.31-.33H.62V1.8H9.15v.91Z"/></g></g></svg>