<svg xmlns="http://www.w3.org/2000/svg" viewBox="0 0 18.31 19"><defs><style>.cls-1{fill:none;}.cls-2{fill:#fff;}</style></defs><title>Asset 92</title><g id="Layer_2" data-name="Layer 2"><g id="Layer_1-2" data-name="Layer 1"><rect class="cls-1" width="18.31" height="19"/><path id="Buy-7" class="cls-2" d="M13.8,17.11a1.37,1.37,0,1,1,1.36,1.39A1.37,1.37,0,0,1,13.8,17.11Zm-10.13,0A1.37,1.37,0,1,1,5,18.5,1.38,1.38,0,0,1,3.67,17.11Zm1.52-2.85A2.3,2.3,0,0,1,2.9,12.11l-.83-10L.71,1.87a.7.7,0,0,1-.55-.8A.68.68,0,0,1,.94.51h0L2.82.84a.68.68,0,0,1,.55.62L4.24,12a1,1,0,0,0,1,.89H15a1,1,0,0,0,.94-.83l.86-6a.53.53,0,0,0-.13-.43.51.51,0,0,0-.4-.19h0a.68.68,0,0,1-.66-.71A.7.7,0,0,1,16.27,4h0a1.85,1.85,0,0,1,1.42.67,2,2,0,0,1,.45,1.53l-.86,6a2.32,2.32,0,0,1-2.28,2Z"/><path class="cls-2" d="M12.48,6.13v0a.7.7,0,0,1-1,0l-.61-.62a.69.69,0,1,1,1-.94h0l.62.61A.7.7,0,0,1,12.48,6.13Z"/><path class="cls-2" d="M12.38,1.67l0,0L8.05,6a.74.74,0,0,1-1,0,.68.68,0,0,1,0-1H7L8.72,3.37,7.19,1.84a.7.7,0,0,1,0-1A.61.61,0,0,1,7.36.74.7.7,0,0,1,8.2.85L9.72,2.37,11.38.72a.69.69,0,0,1,1,0h0a0,0,0,0,1,0,0,.68.68,0,0,1,0,1Z"/></g></g></svg>