<svg xmlns="http://www.w3.org/2000/svg" viewBox="0 0 18.31 19"><defs><style>.cls-1{fill:none;}.cls-2{fill:#04999a;}</style></defs><title>assetAsset 69</title><g id="Layer_2" data-name="Layer 2"><g id="Layer_1-2" data-name="Layer 1"><rect class="cls-1" width="18.31" height="19"/><path class="cls-2" d="M18.1,2.3a.57.57,0,0,0-.47-.09L12.14,3.5,6.25,2.21a.57.57,0,0,0-.26,0L.48,3.53a.67.67,0,0,0-.26.14l0,.06A.57.57,0,0,0,0,4.35l0,.07a.62.62,0,0,0,.3.28.51.51,0,0,0,.4,0L5.82,3.53V9.15l-2.65,2-.06,0a.71.71,0,0,0-.45-.16h0a.76.76,0,0,0-.73.8.78.78,0,0,0,.25.53.75.75,0,0,0,.56.2.74.74,0,0,0,.52-.25.73.73,0,0,0,.2-.54.49.49,0,0,0,0-.14l0-.13L5.82,9.57v4.92L1.3,15.58V7.32a.64.64,0,0,0-.24-.5.68.68,0,0,0-.53-.11.63.63,0,0,0-.48.61v9a.54.54,0,0,0,.24.44.63.63,0,0,0,.31.1l.16,0L6.13,15.5,12,16.8h.27l5.59-1.32a.54.54,0,0,0,.42-.52V2.73A.55.55,0,0,0,18.1,2.3ZM14.59,12.46h0a.78.78,0,0,0,.54-.25.8.8,0,0,0,.2-.56A.77.77,0,0,0,14.9,11l-.06,0,.37-2.83h.07a.78.78,0,0,0,.66-.78.81.81,0,0,0-.78-.74h0a.8.8,0,0,0-.74.81.78.78,0,0,0,.41.63l.06,0L14.49,11h-.07a.72.72,0,0,0-.3.13l0,.05L12.54,10V4.5l4.67-1.1V14.54l-4.67,1.09V10.46l1.33,1,0,.08a.52.52,0,0,0,0,.21A.79.79,0,0,0,14.59,12.46ZM8.48,6.75h0a.78.78,0,0,0-.73.8v0l0,0a.12.12,0,0,1,0,0v0l-1.27,1V3.34l5.4,1.19v5L9.24,7.65V7.6s0-.06,0-.08v0A.78.78,0,0,0,8.48,6.75Zm0,1.54A.78.78,0,0,0,9.05,8L9.11,8l2.77,2v5.68l-5.4-1.19V9.08L7.91,8,8,8.07A.7.7,0,0,0,8.53,8.29Z"/></g></g></svg>