<svg xmlns="http://www.w3.org/2000/svg" viewBox="0 0 19.35 21.52"><defs><style>.cls-1{fill:#e83f3f;}</style></defs><title>assetDelete-7</title><g id="Layer_2" data-name="Layer 2"><g id="Layer_1-2" data-name="Layer 1"><path id="Delete-7" class="cls-1" d="M9.88,21.52a.79.79,0,0,1,0-1.58h0c1.63,0,2.22,0,3.86,0a1.62,1.62,0,0,0,1.72-1.48,1,1,0,0,0,0-.17c.32-3,.89-10.22.89-10.29A.77.77,0,1,1,17.9,8a.13.13,0,0,1,0,.06c0,.08-.57,7.31-.9,10.35a3.14,3.14,0,0,1-3.23,3c-1.38,0-1.72,0-3.1,0Zm-4.37,0a3.15,3.15,0,0,1-3.16-3C2,15.39,1.45,8.17,1.45,8.09a.78.78,0,0,1,.7-.85A.79.79,0,0,1,3,8c0,.07.57,7.26.9,10.3a1.59,1.59,0,0,0,1.53,1.64h.13a.79.79,0,0,1,0,1.58ZM.76,5.34A.79.79,0,0,1,0,4.52a.8.8,0,0,1,.76-.76H4.19A1,1,0,0,0,5.14,3L5.4,1.66A2.13,2.13,0,0,1,7.45,0H11.9a2.12,2.12,0,0,1,2,1.61.79.79,0,0,1-.53,1A.78.78,0,0,1,12.47,2h0a.59.59,0,0,0-.56-.44H7.45A.58.58,0,0,0,6.89,2L6.65,3.28a3.82,3.82,0,0,1-.15.48H18.59a.79.79,0,0,1,0,1.58Z"/></g></g></svg>