<svg xmlns="http://www.w3.org/2000/svg" viewBox="0 0 11.16 11.16"><defs><style>.cls-1{fill:none;}.cls-2{fill:#575756;}</style></defs><title>assetAsset 85</title><g id="Layer_2" data-name="Layer 2"><g id="Layer_1-2" data-name="Layer 1"><rect class="cls-1" width="11.16" height="11.16"/><path id="Profile-7" class="cls-2" d="M5,11.15a.39.39,0,0,1-.39-.4h0A.42.42,0,0,1,5,10.35h.54c2.42,0,3.65-.42,3.65-1.24S8,7.87,5.58,7.87s-3.64.41-3.64,1.24c0,.27.09.66.93.94a.4.4,0,1,1-.26.76c-1.22-.41-1.48-1.15-1.48-1.7,0-1.83,2.54-2,4.45-2,1.1,0,4.45,0,4.45,2,0,1.83-2.54,2-4.45,2ZM2.58,3a3,3,0,1,1,3,3h0A3,3,0,0,1,2.58,3Zm.81,0A2.19,2.19,0,1,0,5.6.84h0A2.17,2.17,0,0,0,3.39,3Z"/></g></g></svg>