<svg xmlns="http://www.w3.org/2000/svg" viewBox="0 0 18.31 19"><defs><style>.cls-1{fill:none;}.cls-2{fill:#fff;}</style></defs><title>Asset 94</title><g id="Layer_2" data-name="Layer 2"><g id="Layer_1-2" data-name="Layer 1"><rect class="cls-1" width="18.31" height="19"/><path id="Tick_Square-7" data-name="Tick Square-7" class="cls-2" d="M5.78,18.5A5.22,5.22,0,0,1,.15,12.88V6.13A5.22,5.22,0,0,1,5.78.5h6.75a5.22,5.22,0,0,1,5.62,5.63V8.44a.67.67,0,0,1-.68.68h0v0a.68.68,0,0,1-.69-.68V6.13c0-2.75-1.51-4.25-4.25-4.25H5.78C3,1.88,1.53,3.39,1.53,6.13v6.75c0,2.73,1.51,4.24,4.25,4.24h6.75c2.74,0,4.24-1.51,4.24-4.24a.69.69,0,1,1,1.38,0,5.21,5.21,0,0,1-5.62,5.62Zm1.83-6.39L5.47,10a.68.68,0,1,1,1-1l1.66,1.66,3.79-3.79a.68.68,0,0,1,1,1L8.56,12.11A.68.68,0,0,1,7.61,12.11Z"/></g></g></svg>